<svg width="19" height="19" viewBox="0 0 19 19" fill="none" xmlns="http://www.w3.org/2000/svg">
<g clip-path="url(#clip0_6_731)">
<path d="M16.245 2.73046C14.44 0.985625 12.065 0 9.53563 0C2.27604 0 -2.28238 7.86521 1.34267 14.1217L0 19L5.01521 17.6922C7.20021 18.8725 8.99017 18.768 9.54037 18.8377C17.9582 18.8377 22.1485 8.65371 16.2331 2.76133L16.245 2.73046Z" fill="#ECEFF1"/>
<path d="M9.55136 17.2202L9.54661 17.2194H9.53395C7.01486 17.2194 5.4054 16.0264 5.24707 15.9575L2.27832 16.7294L3.07395 13.8437L2.88474 13.5469C2.10099 12.2992 1.68457 10.8623 1.68457 9.3827C1.68457 2.42157 10.191 -1.05939 15.1136 3.86082C20.0243 8.72957 16.5766 17.2202 9.55136 17.2202Z" fill="#4AC959"/>
<path d="M13.8559 11.3258L13.8488 11.3852C13.6105 11.2664 12.4499 10.6988 12.2338 10.6204C11.7485 10.4407 11.8855 10.5919 10.9537 11.6591C10.8151 11.8135 10.6774 11.8253 10.4422 11.7185C10.2047 11.5997 9.44237 11.3503 8.53987 10.5428C7.83687 9.91346 7.36504 9.14159 7.2257 8.90409C6.99375 8.50351 7.47904 8.44651 7.92079 7.61051C7.99995 7.44426 7.95958 7.31363 7.901 7.19567C7.84162 7.07692 7.369 5.91317 7.17108 5.44926C6.98108 4.98692 6.78554 5.04551 6.63908 5.04551C6.18308 5.00592 5.84979 5.01226 5.55608 5.31784C4.27833 6.72226 4.60054 8.17101 5.69383 9.71159C7.84241 12.5236 8.98716 13.0413 11.0803 13.7602C11.6456 13.9399 12.161 13.9145 12.5687 13.856C13.0231 13.7839 13.9675 13.2852 14.1647 12.727C14.3665 12.1689 14.3665 11.7058 14.3072 11.5989C14.2486 11.492 14.0934 11.4327 13.8559 11.3258V11.3258Z" fill="#FAFAFA"/>
</g>
<defs>
<clipPath id="clip0_6_731">
<rect width="19" height="19" fill="white"/>
</clipPath>
</defs>
</svg>
