<svg width="505" height="271" viewBox="0 0 505 271" fill="none" xmlns="http://www.w3.org/2000/svg">
<g clip-path="url(#clip0_6_428)">
<path d="M59.5204 269.494C59.5204 269.494 -42.6998 167.387 20.7802 106.336C84.2602 45.2861 134.432 124.54 169.13 118.701C213.049 111.311 232.043 0.106408 297.701 -0.000239859C372.406 -0.121244 427.238 43.955 398.031 148.921C376.489 226.341 524.562 162.941 502.814 271L59.5204 269.494Z" fill="#FAFAFA"/>
<path d="M282.469 256.227C268.574 253.996 258.083 258.854 247.995 257.458C239.95 256.344 235.758 248.22 224.947 245.919C227.518 244.406 230.514 242.513 231.946 241.137C234.728 238.462 238.725 233.113 231.946 232.902C227.07 232.75 223.272 240.858 221.523 245.419C219.922 245.286 218.19 245.275 216.301 245.413C218.533 238.234 222.884 224.342 223.948 221.673C225.397 218.041 219.312 205.933 212.142 219.522C207.114 229.053 210.529 240.068 213.016 245.796C211.051 246.112 209.197 246.569 207.426 247.121C201.5 233.63 182.651 195.163 162.217 199.944C139.941 205.155 187.666 231.013 199.701 250.187C189.868 254.736 181.229 260.261 166.294 256.227C126.604 245.503 123.456 269.632 123.456 269.632L300.822 269.691C300.826 269.691 296.365 258.459 282.469 256.227Z" fill="#485CC7"/>
<path d="M234.219 169.404C234.402 171.108 236.817 171.047 239.546 170.638C242.275 170.23 241.57 170.946 245.408 170.872C249.247 170.798 250.527 169.488 250.694 168.936C250.844 168.446 248.982 168.097 246.989 167.683C246.738 167.632 246.487 167.576 246.235 167.523C243.986 167.031 242.456 165.415 240.501 164.024C238.648 162.708 237.4 156.672 237.4 156.672L231.944 156.639C231.944 156.639 233.658 162.098 234.552 163.996C235.078 165.111 234.517 166.545 234.342 167.622C234.248 168.204 234.153 168.803 234.219 169.404Z" fill="#F7B794"/>
<path d="M239.548 170.637C242.277 170.228 241.572 170.944 245.411 170.87C249.249 170.796 250.53 169.486 250.696 168.934C250.846 168.444 248.984 168.095 246.991 167.681L246.968 167.718C246.968 167.718 244.541 169.123 241.373 168.912C238.79 168.739 236.126 167.753 234.343 167.62C234.248 168.204 234.156 168.803 234.219 169.402C234.402 171.106 236.817 171.045 239.548 170.637Z" fill="#2B265E"/>
<path d="M191.562 169.133C191.681 170.842 194.096 170.872 196.839 170.567C199.582 170.261 198.851 170.95 202.687 171.02C206.526 171.09 207.856 169.831 208.043 169.283C208.211 168.797 206.364 168.381 204.387 167.89C204.138 167.829 203.89 167.765 203.639 167.702C201.411 167.125 199.942 165.454 198.041 163.992C196.239 162.605 197.723 156.856 197.723 156.856L193.582 154.906C193.582 154.906 193.013 160.831 192.704 163.827C192.579 165.054 191.967 166.287 191.749 167.355C191.636 167.938 191.519 168.53 191.562 169.133Z" fill="#F7B794"/>
<path d="M196.839 170.567C199.583 170.261 198.851 170.95 202.688 171.02C206.526 171.09 207.856 169.83 208.043 169.283C208.211 168.797 206.364 168.38 204.387 167.89L204.362 167.927C204.362 167.927 201.884 169.24 198.726 168.91C196.151 168.641 193.527 167.556 191.749 167.355C191.634 167.935 191.517 168.53 191.56 169.131C191.679 170.842 194.096 170.872 196.839 170.567Z" fill="#2B265E"/>
<path d="M200.863 83.8149C200.863 83.8149 199.716 89.3564 198.568 117.462C198.568 117.462 196.437 122.665 194.893 129.029C193.348 135.391 192.257 161.943 192.257 161.943C192.257 161.943 192.873 162.829 194.743 162.941C196.27 163.034 197.46 162.365 197.46 162.365C197.46 162.365 208.201 127.59 213.431 114.091C218.659 100.589 221.723 81.3127 221.723 81.3127L200.863 83.8149Z" fill="#485CC7"/>
<path d="M213.78 86.188C213.78 86.188 214.627 91.7829 223.299 118.547C223.299 118.547 223.106 124.165 223.864 130.668C224.622 137.172 233.399 162.777 233.399 162.777C233.399 162.777 234.564 163.181 236.315 162.72C237.94 162.291 239.215 161.315 239.215 161.315C239.215 161.315 235.851 124.719 236.07 110.245C236.292 95.774 232.478 76.6287 232.478 76.6287L213.78 86.188Z" fill="#485CC7"/>
<path d="M229.139 8.67552C227.781 7.81209 226.108 7.64186 224.931 7.65211C225.249 7.35678 225.847 7.27269 225.847 7.27269C225.126 7.12913 223.466 7.76697 223.466 7.76697C213.546 3.37185 211.212 18.1569 211.251 21.6209C211.29 25.0849 211.115 29.0616 205.912 31.9063C195.672 37.5053 203.522 48.5618 203.522 48.5618C201.679 53.8408 208.503 60.3074 208.503 60.3074C208.388 57.5038 221.281 39.6444 228.233 35.5692C229.992 33.2435 230.787 29.0186 230.849 28.6863C230.397 32.0437 229.725 33.908 229.154 34.9457C235.117 29.9969 232.744 10.9623 229.139 8.67552Z" fill="#2B265E"/>
<path d="M226.98 33.6557C227.015 33.6721 223.727 35.3744 221.254 34.6996C218.928 34.0679 217.408 31.0551 217.44 31.049C218.425 30.8541 218.71 29.5026 218.69 23.6985L219.136 23.7867L226.355 25.2141L226.624 25.2654C226.624 25.2654 226.453 27.6178 226.447 29.8328C226.445 30.3024 226.454 30.7639 226.47 31.1966C226.517 32.4826 226.659 33.506 226.98 33.6557Z" fill="#F7B794"/>
<path d="M226.445 29.8328C226.443 30.3025 226.451 30.7639 226.468 31.1967C222.269 31.0285 219.846 26.2355 218.934 24.1333L226.352 25.2141L226.622 25.2654C226.622 25.2654 226.449 27.6178 226.445 29.8328Z" fill="#E89277"/>
<path d="M218.359 22.9724C218.359 22.9724 216.164 19.5104 215.636 16.5489C215.26 14.4344 216.339 6.59988 224.228 7.72788C224.228 7.72788 226.519 7.95348 228.673 9.40553C230.386 10.5602 232.859 13.0521 230.093 19.8898L229.375 22.1992L218.359 22.9724Z" fill="#2B265E"/>
<path d="M227.061 28.7478C227.061 28.7478 217.233 27.4516 218.135 21.3543C219.039 15.2569 218.377 10.9828 224.692 11.5529C231.007 12.1231 231.878 14.6293 232.074 16.7376C232.269 18.846 229.643 28.9283 227.061 28.7478Z" fill="#F7B794"/>
<path d="M229.182 12.0678C229.182 12.0678 225.43 18.8194 221.151 19.2644C216.873 19.7095 215.25 18.3415 215.25 18.3415C215.25 18.3415 218.784 16.305 220.093 12.0288C220.093 12.0309 227.664 8.36381 229.182 12.0678Z" fill="#2B265E"/>
<path d="M228.43 12.5498C228.43 12.5498 230.197 14.4448 230.454 16.0691C230.711 17.6935 230.454 20.9216 231.404 20.9524C231.404 20.9524 234.153 16.3911 232.289 13.3045C230.313 10.0312 228.43 12.5498 228.43 12.5498Z" fill="#2B265E"/>
<path d="M293.708 95.3861C291.645 91.0259 285.914 87.4183 281.083 87.4183C277.515 87.4183 274.369 88.6325 271.934 90.6116C270.543 91.7437 268.442 90.9972 268.064 89.2457L263.837 69.641C263.221 66.782 260.399 64.9628 257.535 65.5781L189.123 80.2729C186.324 80.8738 184.544 83.6262 185.146 86.4195L199.854 154.623C200.275 156.573 201.707 158.046 203.485 158.61L202.587 158.864H205.242L205.265 158.86C205.589 158.85 205.918 158.813 206.247 158.743L207.737 158.423L225.294 154.651C227.758 154.122 228.759 151.146 227.103 149.251C225.504 147.42 224.353 145.15 223.862 142.58C222.481 135.336 226.967 128.162 234.098 126.232C242.03 124.087 250.04 129.029 251.748 136.944C252.389 139.922 252.046 142.881 250.934 145.486C250.503 146.497 250.86 147.549 251.602 148.148L250.579 148.646L252.952 148.644C253.129 148.648 253.314 148.634 253.501 148.593L274.466 144.089C277.33 143.474 279.155 140.656 278.536 137.797L274.334 118.313C273.946 116.511 275.592 114.929 277.384 115.389C279.453 115.92 281.674 115.992 283.906 115.512C292.677 113.629 297.804 104.045 293.708 95.3861Z" fill="#44474E"/>
<path d="M278.668 87.4183C275.101 87.4183 271.954 88.6325 269.519 90.6116C268.128 91.7437 266.028 90.9972 265.65 89.2457L261.423 69.641C260.806 66.782 257.985 64.9628 255.12 65.5781L186.706 80.2729C183.907 80.8738 182.128 83.6262 182.73 86.4195L197.437 154.623C198.062 157.523 200.925 159.367 203.83 158.743L222.878 154.651C225.342 154.122 226.342 151.146 224.686 149.251C223.087 147.42 221.937 145.15 221.445 142.58C220.065 135.336 224.551 128.162 231.681 126.232C239.613 124.087 247.624 129.029 249.331 136.944C249.975 139.922 249.629 142.881 248.518 145.486C247.794 147.178 249.28 148.981 251.08 148.593L272.045 144.089C274.91 143.474 276.732 140.656 276.116 137.797L271.913 118.313C271.525 116.511 273.173 114.929 274.963 115.389C277.032 115.92 279.254 115.992 281.485 115.512C290.258 113.627 295.385 104.045 291.29 95.3861C289.231 91.0279 283.497 87.4204 278.668 87.4183Z" fill="#31137C"/>
<path d="M253.637 61.4907C253.637 61.4907 257.903 62.188 259.023 64.9588C260.141 67.7276 258.579 69.6042 257.979 69.598C257.379 69.5919 256.226 69.1488 255.688 67.7112C255.147 66.2735 253.637 61.4907 253.637 61.4907Z" fill="#F7B794"/>
<path d="M194.891 73.8474C194.891 73.8474 199.681 73.8413 201.405 76.6674C203.127 79.4936 201.761 81.8234 201.103 81.926C200.446 82.0265 199.108 81.7496 198.257 80.277C197.406 78.8045 194.891 73.8474 194.891 73.8474Z" fill="#F7B794"/>
<path d="M253.756 64.7046C253.33 64.6144 251.475 64.397 249.112 64.0257C244.763 63.3448 238.699 62.1451 236.665 60.2726C236.114 59.7639 234.83 56.9665 233.496 53.7589C232.146 60.8591 232.072 66.3064 232.429 70.4513L203.035 76.766C205.557 71.6798 209.457 65.3752 208.725 60.2726C208.454 58.3816 207.416 55.7852 207.028 52.8688C206.995 52.6185 206.968 52.3663 206.946 52.112C202.823 55.498 198.06 59.2348 197.947 59.9834C197.758 61.2365 200.968 75.1048 200.968 75.1048C200.17 76.9363 196.71 76.5507 196.71 76.5507C193.465 74.2393 188.696 61.1381 189.078 58.236C189.46 55.334 201.286 38.7933 204.151 34.8412C206.979 30.9362 217.303 31.0326 217.551 31.0347H217.553C217.556 31.0347 217.556 31.0347 217.558 31.0347C225.767 35.9548 226.507 31.8653 226.507 31.8653C226.507 31.8653 233.915 33.2722 235.187 35.4544C236.461 37.6386 242.043 54.1998 242.437 54.7843C243.263 56.0046 256.758 60.8837 257.001 62.2968C257.245 63.7079 254.964 64.961 253.756 64.7046Z" fill="#44474E"/>
<path d="M213.285 74.5735L203.035 76.7659C205.587 71.694 208.941 65.3792 208.208 60.3073C207.932 58.4143 207.318 56.1726 207.022 53.2439C206.993 52.9609 206.944 52.1118 206.944 52.1118C206.944 52.1118 214.202 57.8134 214.329 63.9825C214.397 67.184 213.838 71.3699 213.285 74.5735Z" fill="#33353A"/>
<path d="M249.385 64.0626C244.983 63.3796 238.845 62.1819 236.786 60.3074C236.227 59.7987 234.928 56.9972 233.578 53.7854C233.578 53.7854 233.105 48.6233 234.458 48.8161C235.81 49.0088 237.799 58.1642 239.219 58.7425C240.489 59.2634 247.513 61.9542 249.385 64.0626Z" fill="#33353A"/>
<path d="M466.237 260.729C465.617 262.815 462.752 264.207 462.366 266.757C462.177 268.001 461.712 268.969 461.123 269.634H452.204C452.292 269.144 452.685 268.617 453.844 268.362C456.32 267.821 457.255 264.825 457.101 262.044C457.037 260.877 457.066 259.548 457.124 258.397C457.202 256.803 457.333 255.552 457.333 255.552L462.598 254.316L463.151 255.025L463.681 255.706C463.681 255.706 466.856 258.643 466.237 260.729Z" fill="#2B265E"/>
<path d="M424.704 269.634H406.66C407.069 269.156 407.761 268.695 408.934 268.504C411.711 268.055 416.519 266.445 417.592 262.903C417.627 262.79 417.658 262.673 417.685 262.554C418.535 258.768 424.731 263.713 424.731 263.713C424.731 263.713 424.749 263.865 424.778 264.123C424.887 265.19 425.13 268.081 424.704 269.634Z" fill="#2B265E"/>
<path d="M409.672 169.309C409.672 169.309 410.613 181.024 411.719 195.106C413.221 214.235 415.029 237.732 415.208 242.182C415.516 249.912 416.757 262.275 416.757 262.275C416.757 262.275 419.698 265.212 425.586 263.975C425.586 263.975 430.83 246.325 432.33 227.652C432.353 227.346 432.377 227.036 432.4 226.729C433.793 207.719 435.961 167.687 435.961 167.687L409.672 169.309Z" fill="#44474E"/>
<path d="M409.672 169.309C409.672 169.309 410.613 181.024 411.719 195.106L432.328 227.652C432.351 227.346 432.375 227.036 432.398 226.729C433.791 207.719 435.959 167.687 435.959 167.687L409.672 169.309Z" fill="#33353A"/>
<path d="M413.969 170.7C413.969 170.7 430.927 213.127 442.077 233.064C453.227 253.001 456.713 258.567 456.713 258.567C456.713 258.567 463.101 256.018 463.681 254.279C463.681 254.279 459.417 215.787 451.949 206.404C447.73 201.103 442.774 185.192 442.542 179.628C442.309 174.063 441.031 163.052 441.031 163.052L413.969 170.7Z" fill="#44474E"/>
<path d="M422.666 105.21C421.912 100.768 421.889 98.1344 421.889 98.1344L430.493 91.2146C430.172 100.731 436.282 105.306 436.282 105.306C436.282 105.306 424.817 110.938 418.19 108.852C418.19 108.852 419.822 106.771 422.666 105.21Z" fill="#F7B794"/>
<path d="M419.863 97.9764C419.863 97.9764 430.807 99.7915 431.835 92.9701C432.862 86.1488 434.967 81.7906 428.023 80.3426C421.079 78.8947 419.324 81.2942 418.426 83.4867C417.528 85.6832 417.041 97.3304 419.863 97.9764Z" fill="#F7B794"/>
<path d="M381.421 112.038L379.09 110.599C379.09 110.599 376.185 106.318 371.222 108.978C371.222 108.978 369.255 110.229 370.575 111.277C371.894 112.325 371.538 111.733 373.367 113.25C375.194 114.768 377.559 115.31 379.084 114.473L381.04 114.288L381.421 112.038Z" fill="#A16D3C"/>
<path d="M378.653 112.485C379.253 110.61 379.538 110.446 379.538 110.446C379.538 110.446 398.384 112.669 400.16 112.8C401.937 112.932 426.609 107.858 426.609 107.858L438.259 121.976C438.259 121.976 403.91 123.268 399.416 122.848C391.987 122.153 378.517 115.251 378.517 115.251C378.517 115.251 378.182 113.957 378.653 112.485Z" fill="#1D0E4C"/>
<path d="M442.324 165.218C442.357 165.946 440.852 166.746 440.199 167.039C435.279 169.24 430.699 170.77 425.522 171.266C419.382 171.893 412.126 170.515 409.637 170.548C409.37 170.548 409.14 170.45 408.941 170.284C408.774 170.15 408.641 162.666 408.774 153.228C408.774 152.863 408.774 152.465 408.807 152.1V151.969C408.817 150.986 408.832 149.988 408.854 148.979C408.916 146.22 409.021 143.388 409.14 140.574C409.321 136.425 409.567 132.348 409.909 128.736C410.266 124.964 410.72 121.695 411.298 119.38C412.625 114.047 415.679 110.536 418.466 107.952L420.755 105.934C423.044 106.397 425.467 106.264 427.89 105.073C430.51 103.78 433.366 102.39 433.828 102.72C437.367 105.36 439.749 111.35 440.97 118.965C441.627 123.063 441.948 127.631 441.929 132.399C441.921 134.228 441.865 136.084 441.759 137.959C441.167 148.015 441.775 156.735 442.122 161.801C442.223 163.261 442.301 164.42 442.324 165.218Z" fill="#31137C"/>
<path d="M384.137 72.2518L314.915 61.2794C311.973 60.8118 309.207 62.8155 308.74 65.7524L305.676 85.0085C305.534 85.9007 305.761 88.4069 305.761 88.4069L308.255 88.7781C308.397 88.8089 308.541 88.8314 308.687 88.8417C309.139 88.8786 309.609 88.8212 310.08 88.653C312.375 87.8244 314.917 87.5721 317.505 88.0459C324.792 89.379 329.888 96.1655 329.113 103.518C328.25 111.697 320.719 117.382 312.686 116.109C309.665 115.629 307.016 114.236 304.978 112.255C304.583 111.871 304.106 111.668 303.627 111.619L301.018 111.227L297.767 134.717C297.306 137.612 299.285 140.334 302.187 140.796L321.962 143.929C323.791 144.218 324.677 146.329 323.598 147.832C322.35 149.571 321.479 151.618 321.121 153.874C319.71 162.742 326.83 170.997 336.425 170.31C341.256 169.964 346.71 165.921 348.461 161.413C349.753 158.085 349.755 154.709 348.781 151.721C348.224 150.012 349.686 148.322 351.463 148.605L371.361 151.76C374.263 152.219 376.988 150.246 377.448 147.35L388.455 78.1892C388.905 75.3589 386.971 72.7009 384.137 72.2518Z" fill="#44474E"/>
<path d="M434.081 118.762C434.081 118.762 428.775 143.474 408.854 148.981C408.916 146.222 409.021 143.39 409.14 140.576C409.321 136.427 409.568 132.35 409.909 128.738C410.264 128.556 410.599 128.412 410.903 128.312C417.664 126.088 434.081 118.762 434.081 118.762Z" fill="#1D0E4C"/>
<path d="M345.902 161.028C347.195 157.699 347.197 154.323 346.223 151.335C345.666 149.627 347.127 147.937 348.904 148.22L368.803 151.374C371.704 151.834 374.429 149.858 374.89 146.965L385.894 77.8036C386.344 74.9754 384.41 72.3174 381.576 71.8683L312.355 60.8958C309.412 60.4303 306.646 62.432 306.18 65.3689L303.116 84.625C302.719 87.1168 305.144 89.1267 307.522 88.2694C309.817 87.4409 312.359 87.1886 314.944 87.6624C322.231 88.9955 327.327 95.7819 326.553 103.134C325.689 111.314 318.16 116.999 310.125 115.725C307.102 115.245 304.456 113.853 302.417 111.871C301.094 110.583 298.868 111.318 298.578 113.139L295.206 134.333C294.746 137.229 296.725 139.951 299.626 140.412L319.401 143.546C321.232 143.835 322.116 145.945 321.037 147.449C319.79 149.188 318.918 151.235 318.561 153.491C317.149 162.359 324.27 170.614 333.864 169.927C338.697 169.578 344.151 165.534 345.902 161.028Z" fill="#71C5B8"/>
<path d="M381.501 127.969L378.655 127.499C378.655 127.499 375.41 122.813 369.754 125.442C369.754 125.442 367.512 126.693 368.994 127.866C370.478 129.038 370.083 128.391 372.136 130.088C374.189 131.784 376.865 132.458 378.603 131.63L380.823 131.515L381.501 127.969Z" fill="#F7B794"/>
<path d="M379.324 129.413C379.417 127.323 380.533 127.099 380.533 127.099C380.533 127.099 402.091 125.676 403.951 125.317C405.811 124.956 422.982 110.758 422.982 110.758C422.982 110.758 429.622 104.802 434.274 106.812C438.316 108.559 439.582 112.005 439.786 115.173C440.028 118.949 437.895 122.481 434.459 124.081C426.747 127.676 411.324 134.731 407.812 135.34C399.995 136.696 379.904 132.352 379.904 132.352C379.904 132.352 379.252 131.056 379.324 129.413Z" fill="#31137C"/>
<path d="M418.426 83.4887C418.426 83.4887 413.984 80.2011 416.881 75.0922C416.881 75.0922 420.377 76.249 425.341 75.0922C430.306 73.9355 434.749 75.5742 435.328 77.3093C435.328 77.3093 437.26 78.0804 437.453 80.9722C437.646 83.864 431.837 92.9721 431.837 92.9721C431.837 92.9721 430.596 91.4298 430.935 90.3695C431.272 89.3092 432.334 86.9486 431.032 86.9486C429.729 86.9486 429.293 88.8764 428.763 88.1053C428.233 87.3342 429.199 84.106 427.653 83.5748C426.104 83.0457 420.165 84.4649 418.426 83.4887Z" fill="#2B265E"/>
<path d="M267.433 267.173L247.866 178.506H253.252C254.528 178.506 255.574 177.464 255.574 176.19V173.196C255.574 171.922 254.53 170.88 253.252 170.88H184.926C183.65 170.88 182.604 171.922 182.604 173.196V176.19C182.604 177.464 183.648 178.506 184.926 178.506H191.86L172.292 267.173C172.029 268.365 172.788 269.556 173.98 269.819C175.169 270.083 176.359 269.322 176.622 268.131L196.401 178.506H243.322L263.101 268.131C263.364 269.322 264.554 270.083 265.744 269.819C266.938 269.556 267.696 268.365 267.433 267.173Z" fill="#33353A"/>
<path d="M397.19 212.873C389.949 205.935 363.875 249.715 363.875 249.715C363.875 249.715 404.434 219.813 397.19 212.873Z" fill="#485CC7"/>
<path d="M396.321 233.113C389.909 230.554 369.419 252.113 364.804 257.093C361.273 256.625 357.4 256.319 353.154 256.246C320.708 255.667 305.991 270.335 305.991 270.335L396.502 270.643C396.502 270.643 388.483 260.483 365.739 257.222C371.296 254.603 387.735 246.973 393.713 245.505C400.957 243.725 403.565 236.003 396.321 233.113Z" fill="#485CC7"/>
<path d="M370.792 189.17H351.258C348.73 189.17 347.121 191.876 348.344 194.084C349.523 196.217 345.37 214.692 336.62 215.174C328.392 215.627 321.584 209.075 321.584 200.957C321.584 197.903 322.548 195.073 324.188 192.755C325.254 191.248 324.18 189.17 322.332 189.17H300.831C297.892 189.17 295.509 191.547 295.509 194.482C295.509 194.482 293.561 217.516 291.902 216.69C290.194 215.838 288.292 215.32 286.28 215.215H286.261C286.021 215.203 285.78 215.197 285.536 215.197C285.291 215.197 281.753 215.137 281.753 215.137L281.216 243.602L284.291 243.635C287.213 243.548 289.751 243.274 292.007 242.127C293.61 241.311 295.511 242.484 295.511 244.281V264.388C295.511 267.319 297.892 269.696 300.829 269.696H370.994C373.865 269.696 376.191 267.374 376.191 264.509V194.554C376.189 191.58 373.772 189.17 370.792 189.17Z" fill="#44474E"/>
<path d="M278.578 243.265C282.075 244.018 285.415 243.489 288.22 242.062C289.823 241.245 291.723 242.418 291.723 244.215V264.322C291.723 267.253 294.105 269.63 297.042 269.63H367.206C370.077 269.63 372.403 267.308 372.403 264.443V194.495C372.403 191.521 369.987 189.109 367.007 189.109H347.473C344.945 189.109 343.336 191.814 344.559 194.023C345.738 196.156 346.388 198.623 346.324 201.244C346.147 208.636 340.233 214.725 332.835 215.112C324.607 215.545 317.799 209.013 317.799 200.896C317.799 197.842 318.763 195.011 320.403 192.694C321.469 191.186 320.394 189.109 318.547 189.109H297.046C294.107 189.109 291.723 191.486 291.723 194.421V214.403C291.723 216.253 289.775 217.455 288.117 216.628C286.2 215.672 284.038 215.135 281.751 215.135C272.754 215.135 265.701 223.447 267.886 232.798C268.985 237.504 273.843 242.248 278.578 243.265Z" fill="#31137C"/>
<path d="M75.4216 270.024L88.0329 270.116C88.0329 270.116 87.5952 267.07 79.1061 266.285C75.8161 257.16 66.1475 232.617 57.7509 233.778C49.4612 234.924 69.0943 257.441 77.0799 266.195C75.9497 266.197 74.8976 266.289 73.9235 266.445C72.0001 262.622 68.184 257.218 62.0622 257.464C55.5459 257.726 64.4234 263.664 70.5349 267.31C67.4401 268.418 65.7673 269.952 65.7673 269.952L75.2777 270.022C75.3887 270.083 75.4503 270.116 75.4503 270.116C75.4503 270.116 75.4401 270.083 75.4216 270.024Z" fill="#485CC7"/>
<path d="M120.477 168.323L122.343 169.834C122.343 169.834 127.447 168.007 128.598 174.061C128.598 174.061 128.904 176.641 127.266 176.645C125.629 176.649 126.305 176.362 123.987 176.432C121.669 176.502 119.745 175.279 119.406 173.403L118.296 171.811L120.477 168.323Z" fill="#E89277"/>
<path d="M120.265 171.567C121.753 170.017 121.633 168.87 121.633 168.87C121.633 168.87 104.396 154.785 102.648 153.638C101.456 152.857 88.7622 141.624 82.8274 134.776C79.8847 131.38 76.2371 132.698 72.0656 133.892L68.6296 134.876C64.4807 136.064 63.4018 141.854 66.8069 144.667C76.3933 152.592 92.3378 161.503 95.3216 163.378C102.728 168.027 117.228 173.555 117.228 173.555C117.228 173.555 118.987 172.9 120.265 171.567Z" fill="#431B73"/>
<path d="M140.44 257.958C140.44 257.958 144.624 261.086 151.034 259.433C151.034 259.433 156.202 258.258 157.336 260.83C157.336 260.83 149.41 264.847 147.405 265.947C145.892 266.775 144.316 268.082 143.2 269.093C142.319 269.893 140.942 269.784 140.19 268.861C139.84 268.432 139.442 267.924 139.004 267.333C137.781 265.68 134.933 260.341 134.933 260.341L140.44 257.958Z" fill="#2B265E"/>
<path d="M142.393 256.514C142.393 256.514 139.845 262.376 133.965 261.299C133.965 261.299 121.966 251.41 113.736 241.137C111.063 237.8 108.788 234.424 107.45 231.333C101.992 218.722 87.2621 199.913 77.8955 190.38L101.328 181.92C101.328 181.92 108.833 196.988 118.82 215.498C126.019 228.831 134.502 243.955 142.393 256.514Z" fill="#31137C"/>
<path d="M118.82 215.496L113.736 241.137C111.063 237.8 108.788 234.424 107.45 231.333C101.992 218.722 87.2621 199.913 77.8955 190.38L101.328 181.92C101.328 181.918 108.835 196.986 118.82 215.496Z" fill="#1D0E4C"/>
<path d="M99.6064 261.285C99.6064 261.285 99.3516 265.963 105.034 266.587C105.034 266.587 108.28 266.603 108.291 269.581L91.777 269.632C91.777 269.632 91.2982 268.43 91.1811 265.858C91.0927 263.883 93.0983 258.719 93.0983 258.719L99.6064 261.285Z" fill="#2B265E"/>
<path d="M93.6429 181.919C93.6429 181.919 104.082 193.367 110.707 213.991C114.312 225.211 104.099 253.424 102.107 263.227C102.107 263.227 95.2561 263.807 90.5707 262.001C90.5707 262.001 90.2152 241.754 92.9545 226.151C94.4875 217.418 79.2109 207.473 72.5343 191.693C67.9928 180.959 73.5186 181.139 80.3082 180.883L93.6429 181.919Z" fill="#31137C"/>
<path d="M81.5924 130.844C75.7851 134.118 63.895 131.099 63.895 131.099C63.895 131.099 68.7242 125.59 66.5295 116.716L71.0895 119.027L75.9885 121.511C75.9885 121.511 76.305 123.078 76.5249 125.891C76.5803 126.615 76.6317 127.425 76.6666 128.309C79.6484 129.214 81.5924 130.844 81.5924 130.844Z" fill="#F7B794"/>
<path d="M102.89 181.328C102.89 182.347 101.715 182.835 101.464 182.884C99.1213 183.311 92.5803 185.85 86.6887 186.432C81.728 186.951 77.1208 186.459 72.0615 185.444C71.3915 185.308 69.8174 184.886 69.7065 184.246C69.5667 183.547 50.1863 144.815 65.2533 128.18C65.6068 127.791 68.5803 128.492 71.3011 129.136C73.8123 129.731 76.1159 129.398 78.1729 128.576L80.7231 129.915C83.8549 131.656 89.7814 137.846 90.474 142.701C90.8254 145.17 92.2412 146.999 92.6502 149.171C92.8022 149.975 92.9584 150.761 93.1166 151.524C93.4249 153.025 93.7434 154.452 94.0701 155.81C94.9558 159.483 95.8909 162.644 96.8094 165.376C97.7876 168.276 98.7452 170.687 99.6021 172.706C100.714 175.323 101.651 177.277 102.239 178.776C102.652 179.83 102.89 180.657 102.89 181.328Z" fill="#653893"/>
<path d="M102.239 178.777C74.8811 165.913 65.4077 141.212 65.4077 141.212C65.4077 141.212 87.6342 149.395 93.1169 151.526C93.4251 153.027 93.7436 154.455 94.0704 155.812C94.9561 159.486 95.8911 162.646 96.8097 165.378C97.7878 168.278 98.7454 170.69 99.6023 172.708C100.714 175.323 101.651 177.277 102.239 178.777Z" fill="#431B73"/>
<path d="M179.512 151.417L173.653 132.873C173.084 131.072 171.216 130.219 169.586 130.676L169.582 130.678C169.496 130.703 169.409 130.732 169.325 130.764L167.27 131.449C167.27 131.449 164.054 134.756 161.744 135.422C154.647 137.471 147.91 133.697 145.321 126.79C142.44 119.109 145.784 110.674 153.518 108.237C156.165 107.405 161.375 108.957 161.375 108.957L163.466 108.264C164.603 107.919 165.382 106.697 164.977 105.411L158.526 85.0003C157.645 82.211 154.663 80.6626 151.868 81.5424L132.825 87.5373C131.062 88.0931 129.331 86.6021 129.623 84.7808C129.96 82.6746 129.823 80.4616 129.136 78.2897C126.438 69.7497 116.4 65.5473 108.143 70.4265C103.985 72.8835 100.924 78.9152 101.372 83.7164C101.704 87.2604 103.209 90.2732 105.412 92.5087C106.671 93.7864 106.123 95.9419 104.409 96.4813L85.2462 102.513C82.4515 103.393 80.902 106.367 81.7815 109.154L102.831 175.762C103.692 178.485 106.603 179.999 109.332 179.139L175.998 158.157C178.834 157.262 180.406 154.247 179.512 151.417Z" fill="#44474E"/>
<path d="M99.3457 84.389C99.6786 87.9329 101.183 90.9457 103.386 93.1812C104.643 94.459 104.097 96.6145 102.383 97.1539L83.2203 103.186C80.4256 104.065 78.8761 107.039 79.7557 109.829L100.803 176.436C101.664 179.162 104.576 180.673 107.305 179.814L173.97 158.831C176.806 157.939 178.378 154.922 177.484 152.094L171.623 133.549C170.865 131.15 167.803 130.434 166.066 132.257C164.387 134.017 162.232 135.373 159.712 136.101C152.615 138.15 145.038 134.362 142.449 127.456C139.568 119.775 143.751 111.352 151.488 108.918C154.398 108.001 157.384 108.069 160.086 108.93C161.841 109.49 163.502 107.847 162.947 106.092L156.496 85.679C155.615 82.8897 152.635 81.3413 149.838 82.2211L130.793 88.216C129.03 88.7697 127.299 87.2807 127.591 85.4595C127.928 83.3532 127.791 81.1403 127.104 78.9663C124.406 70.4243 114.367 66.224 106.113 71.1031C101.96 73.556 98.8956 79.5898 99.3457 84.389Z" fill="#71C5B8"/>
<path d="M118.245 171.321L120.608 172.187C120.608 172.187 125.343 168.846 128.289 174.279C128.289 174.279 129.356 176.652 127.669 177.166C125.982 177.681 126.594 177.197 124.223 177.985C121.851 178.772 119.515 178.206 118.619 176.514L117.012 175.337L118.245 171.321Z" fill="#F7B794"/>
<path d="M120.189 174.658C121.062 172.382 121.463 171.352 121.463 171.352C121.463 171.352 103.599 156.821 101.78 155.574C100.539 154.725 88.1929 145.515 82.1719 138.334C79.186 134.774 74.4781 133.146 69.9243 134.099L66.1739 134.885C61.6468 135.832 60.1755 141.552 63.6874 144.557C73.58 153.021 90.2643 162.837 93.3755 164.879C101.098 169.947 118.179 177.052 118.179 177.052C118.179 177.052 119.502 176.444 120.189 174.658Z" fill="#653893"/>
<path d="M76.5247 125.894C70.814 126.213 67.0986 121.507 67.0986 121.507C67.0986 121.507 69.6817 120.079 71.0894 119.029L75.9884 121.513C75.9884 121.511 76.3049 123.078 76.5247 125.894Z" fill="#E89277"/>
<path d="M78.9581 120.04C78.9581 120.04 70.3046 126.238 66.5194 120.801C62.7341 115.364 59.0701 112.501 64.4336 108.313C69.7991 104.125 72.3288 105.448 74.0323 106.957C75.74 108.465 81.1117 118.289 78.9581 120.04Z" fill="#F7B794"/>
<path d="M74.9486 102.045C74.6383 99.9556 73.9396 98.4851 73.9396 98.4851C73.9396 98.4851 73.3971 100.731 69.2851 100.421C65.1731 100.111 58.6589 100.825 56.4868 105.499C56.3491 105.797 56.2258 106.104 56.1148 106.416C55.7223 105.38 55.6278 103.826 55.6278 103.826C54.8469 105.838 55.6278 108.356 55.6278 108.356C55.6155 108.43 55.6072 108.504 55.5949 108.578C54.6887 109.343 53.9263 111.724 53.9263 111.724C54.1996 111.061 54.8674 110.627 55.4634 110.36C55.4449 113.998 56.9224 117.555 59.5178 118.613C63.3134 120.161 63.2825 118.98 67.0986 121.507C67.0986 121.507 68.122 120.239 67.4233 119.388C66.7246 118.537 64.0881 117.298 65.5615 116.059C67.0349 114.821 67.5774 116.213 68.122 115.362C68.6645 114.511 65.9499 112.033 69.4413 109.712C72.9327 107.388 75.2589 104.135 74.9486 102.045Z" fill="#2B265E"/>
<path d="M297.72 269.665C297.72 269.665 293.345 263.209 286.495 263.729C284.414 263.887 281.031 264.394 277.102 264.933C274.139 254.615 265.972 230.084 254.956 228.704C243.705 227.293 265.722 254.574 274.722 265.253C273.08 265.469 271.375 265.68 269.655 265.866C264.889 260.786 256.583 253.262 249.648 253.84C242.696 254.42 255.712 261.594 265.107 266.287C259.343 266.718 253.877 266.67 250.535 265.38C242.355 262.224 234.835 269.663 234.835 269.663H297.72V269.665Z" fill="#44474E"/>
</g>
<defs>
<clipPath id="clip0_6_428">
<rect width="505" height="271" fill="white"/>
</clipPath>
</defs>
</svg>
