<svg width="439" height="315" viewBox="0 0 439 315" fill="none" xmlns="http://www.w3.org/2000/svg">
<g clip-path="url(#clip0_6_499)">
<path d="M38.927 313.911C38.927 313.911 -35.2184 250.498 21.1459 190.396C81.1573 126.408 27.9893 44.2599 109.451 11.1153C197.522 -24.7189 220.181 38.3945 257.052 28.7042C330.591 9.37468 423.868 18.8931 408.349 112.783C388.866 230.643 468.798 215.611 421.324 314.306L38.927 313.911Z" fill="#FAFAFA"/>
<path d="M257.053 122.928C257.053 122.928 269.36 70.6829 310.874 64.94C310.874 64.94 318.952 63.9472 321.642 72.855C324.333 81.7646 308.271 81.8286 298.345 85.4122C288.417 88.9939 265.272 104.186 257.053 122.928Z" fill="#D2E0FF"/>
<path d="M256.109 113.15C256.109 113.15 251.794 69.8747 282.09 54.5164C282.09 54.5164 288.017 51.624 292.422 57.738C296.826 63.8539 284.538 68.1414 277.875 73.5077C271.212 78.8739 257.476 96.6219 256.109 113.15Z" fill="#D2E0FF"/>
<g opacity="0.8">
<path opacity="0.8" d="M162.753 153.539C162.753 153.539 180.56 143.55 172.251 129.995C172.251 129.995 165.602 121.672 158.48 119.531C158.48 119.531 162.278 139.746 158.48 140.221C154.681 140.696 155.868 117.392 155.868 117.392C155.868 117.392 137.112 108.356 129.752 109.069C129.752 109.069 141.385 128.806 137.586 128.331C133.788 127.856 120.729 107.879 120.729 107.879C120.729 107.879 101.499 104.312 98.4118 115.726C95.3251 127.141 100.312 132.849 103.16 133.562C106.009 134.275 124.29 134.037 123.816 136.416C123.341 138.795 110.994 142.6 104.111 140.459C104.111 140.459 111.708 159.245 121.68 158.294C131.652 157.344 134.739 151.16 140.91 150.685C147.084 150.209 151.594 151.873 148.508 153.539C145.421 155.203 134.974 154.084 129.989 158.329C125.004 162.575 120.966 165.191 130.226 167.092C139.487 168.996 156.105 167.806 159.429 160.671C162.753 153.539 162.753 153.539 162.753 153.539Z" fill="#AEC3FF"/>
<g opacity="0.8">
<path opacity="0.8" d="M107.196 119.295C107.196 119.295 157.054 135.467 162.753 153.541C162.753 153.541 162.516 161.626 167.501 170.901V174.468C167.501 174.468 162.279 162.341 159.429 160.675C159.429 160.673 170.588 144.978 107.196 119.295Z" fill="#AEC3FF"/>
<path opacity="0.8" d="M167.501 170.899C167.501 170.899 175.19 182.595 170.807 196.831L168.828 196.299C168.828 196.299 170.748 180.619 166.725 172.733C162.704 164.845 167.501 170.899 167.501 170.899Z" fill="#AEC3FF"/>
</g>
</g>
<g opacity="0.5">
<path opacity="0.5" d="M172.645 234.179C172.645 234.179 184.309 199.175 156.773 191.185C156.773 191.185 137.802 188.159 125.694 193.968C125.694 193.968 155.282 216.338 150.786 221.596C146.29 226.853 119.61 194.288 119.61 194.288C119.61 194.288 83.6044 205.042 74.6399 214.95C74.6399 214.95 114.114 227.152 108.464 231.138C102.815 235.124 61.1521 224.34 61.1521 224.34C61.1521 224.34 31.1446 242.977 40.8684 261.975C50.5904 280.974 64.1713 282.528 68.8406 280.014C73.51 277.5 97.6343 254.938 99.885 258.692C102.136 262.445 90.2634 282.548 78.4732 288.068C78.4732 288.068 111.403 303.911 123.566 290.507C135.728 277.103 132.351 265.091 140.016 256.946C147.683 248.8 155.725 245.533 153.623 251.512C151.52 257.491 136.212 268.708 134.704 280.442C133.195 292.178 130.979 300.583 145.651 291.856C160.324 283.13 181.075 261.321 176.86 247.749C172.645 234.179 172.645 234.179 172.645 234.179Z" fill="#D2E0FF"/>
<g opacity="0.5">
<path opacity="0.5" d="M56.9248 256.05C56.9248 256.05 143.116 216.978 172.645 234.179C172.645 234.179 182.683 246.506 176.858 247.751C176.858 247.751 172.724 213.213 56.9248 256.05Z" fill="#D2E0FF"/>
</g>
</g>
<path d="M300.11 237.92C300.11 237.92 303.547 216.985 319.689 220.316C319.689 220.316 330.147 223.872 334.75 230.078C334.75 230.078 313.715 233.51 314.595 237.391C315.474 241.273 337.759 231.875 337.759 231.875C337.759 231.875 353.192 247.014 355.098 254.459C355.098 254.459 331.757 250.066 333.562 253.611C335.367 257.156 359.444 262.859 359.444 262.859C359.444 262.859 369.718 280.395 359.687 287.447C349.657 294.499 342.335 291.643 340.632 289.11C338.931 286.578 332.699 268.625 330.55 269.931C328.402 271.236 329.059 284.647 333.577 290.621C333.577 290.621 312.588 289.834 309.991 279.753C307.393 269.669 312.326 264.468 310.608 258.266C308.89 252.064 305.674 248.243 305.143 251.848C304.612 255.454 309.394 265.268 307.021 271.642C304.648 278.016 303.525 282.885 298.4 274.507C293.274 266.13 288.557 249.466 294.333 243.694C300.11 237.92 300.11 237.92 300.11 237.92Z" fill="#BBD0FF"/>
<path d="M353.11 280.117C353.11 280.117 319.733 237.101 300.112 237.92C300.112 237.92 292.319 241.01 281.52 239.415L278.045 240.677C278.045 240.677 291.706 241.496 294.335 243.692C294.335 243.69 305.681 227.235 353.11 280.117Z" fill="#BBD0FF"/>
<path d="M281.52 239.413C281.52 239.413 267.408 236.031 255.089 245.348L256.306 247.094C256.306 247.094 270.904 239.675 280.009 240.819C289.114 241.964 281.52 239.413 281.52 239.413Z" fill="#BBD0FF"/>
<path d="M293.836 151.217C293.836 151.217 272.07 139.007 282.227 122.438C282.227 122.438 290.353 112.264 299.059 109.647C299.059 109.647 294.415 134.356 299.059 134.937C303.702 135.519 302.251 107.031 302.251 107.031C302.251 107.031 325.178 95.9838 334.175 96.8559C334.175 96.8559 319.954 120.983 324.598 120.402C329.241 119.82 345.202 95.4024 345.202 95.4024C345.202 95.4024 368.71 91.0417 372.483 104.996C376.256 118.95 370.161 125.925 366.678 126.797C363.195 127.669 340.849 127.379 341.429 130.286C342.01 133.193 357.1 137.844 365.517 135.228C365.517 135.228 356.23 158.192 344.042 157.029C331.852 155.866 328.08 148.308 320.534 147.727C312.988 147.145 307.474 149.18 311.247 151.215C315.02 153.25 327.788 151.882 333.883 157.071C339.978 162.26 344.912 165.458 333.593 167.784C322.274 170.109 301.959 168.656 297.896 159.935C293.836 151.217 293.836 151.217 293.836 151.217Z" fill="#D2E0FF"/>
<path d="M361.748 109.356C361.748 109.356 300.802 129.123 293.836 151.217C293.836 151.217 294.126 161.101 288.031 172.437V176.798C288.031 176.798 294.416 161.973 297.899 159.938C297.899 159.938 284.26 140.751 361.748 109.356Z" fill="#D2E0FF"/>
<path d="M288.033 172.437C288.033 172.437 278.635 186.733 283.994 204.135L286.413 203.484C286.413 203.484 284.065 184.318 288.983 174.677C293.898 165.037 288.033 172.437 288.033 172.437Z" fill="#D2E0FF"/>
<path d="M310.529 90.76H147.834V313.612H310.529V90.76Z" fill="#485CC7"/>
<path d="M303.598 96.7734H154.767V307.471H303.598V96.7734Z" fill="#F3FAFF"/>
<path d="M198.326 90.76V98.3514C198.326 102.544 201.716 105.943 205.898 105.943H246.569C250.751 105.943 254.141 102.544 254.141 98.3514V90.76H198.326Z" fill="#2B478B"/>
<path d="M190.457 277.648H172.043V279.515H190.457V277.648Z" fill="#AEC3FF"/>
<path d="M213.136 277.648H194.722V279.515H213.136V277.648Z" fill="#AEC3FF"/>
<path d="M197.58 281.79H172.043V283.657H197.58V281.79Z" fill="#AEC3FF"/>
<path d="M267.89 140.481H187.931V141.514H267.89V140.481Z" fill="#485CC7"/>
<path d="M288.711 175.07H261.793V148.109H288.711V175.07ZM263.06 173.799H287.442V149.378H263.06V173.799Z" fill="#AFCDFB"/>
<path d="M275.92 169.65C275.356 169.65 274.817 169.398 274.454 168.959L266.149 158.894C265.479 158.082 265.594 156.883 266.402 156.212C267.211 155.541 268.41 155.656 269.08 156.466L275.668 164.449L287.584 144.415C288.123 143.512 289.289 143.216 290.191 143.753C291.093 144.293 291.388 145.461 290.852 146.364L277.554 168.72C277.238 169.252 276.683 169.596 276.066 169.643C276.017 169.649 275.969 169.65 275.92 169.65Z" fill="#ECBC4E"/>
<path d="M241.02 152.087H181.222V154.718H241.02V152.087Z" fill="#AEC3FF"/>
<path d="M236.332 163.836H181.222V166.467H236.332V163.836Z" fill="#AEC3FF"/>
<path d="M241.02 157.962H224.719V160.593H241.02V157.962Z" fill="#AEC3FF"/>
<path d="M220.203 157.962H181.222V160.593H220.203V157.962Z" fill="#AEC3FF"/>
<path d="M167.835 154.438L165.159 155.183L164.607 153.056L168.6 151.78H170.425V166.773H167.835V154.438Z" fill="#AEC3FF"/>
<path d="M172.135 165.827C172.135 165.305 172.558 164.88 173.08 164.88C173.602 164.88 174.026 165.305 174.026 165.827C174.026 166.35 173.602 166.775 173.08 166.775C172.558 166.775 172.135 166.35 172.135 165.827Z" fill="#AEC3FF"/>
<path d="M288.919 215.345H262.001V188.384H288.919V215.345ZM263.268 214.076H287.65V189.655H263.268V214.076Z" fill="#AFCDFB"/>
<path d="M276.128 209.926C275.564 209.926 275.026 209.673 274.663 209.234L266.357 199.169C265.687 198.357 265.802 197.158 266.611 196.487C267.419 195.816 268.619 195.931 269.289 196.741L275.876 204.724L287.793 184.69C288.331 183.787 289.497 183.491 290.399 184.029C291.301 184.568 291.597 185.736 291.06 186.639L277.762 208.995C277.446 209.527 276.891 209.871 276.274 209.918C276.225 209.924 276.178 209.926 276.128 209.926Z" fill="#ECBC4E"/>
<path d="M164.493 205.002L169.575 200.672C171.599 198.961 172.337 198.012 172.337 196.681C172.337 195.224 171.304 194.379 169.955 194.379C168.606 194.379 167.678 195.118 166.539 196.597L164.705 195.162C166.118 193.176 167.509 192.057 170.145 192.057C173.032 192.057 175.015 193.831 175.015 196.513C175.015 198.837 173.772 200.082 171.178 202.236L168.142 204.77H175.163V207.05H164.495V205.002H164.493Z" fill="#AEC3FF"/>
<path d="M176.917 206.11C176.917 205.591 177.336 205.17 177.855 205.17C178.373 205.17 178.793 205.591 178.793 206.11C178.793 206.629 178.373 207.05 177.855 207.05C177.336 207.05 176.917 206.629 176.917 206.11Z" fill="#AEC3FF"/>
<path d="M244.554 192.362H181.717V194.993H244.554V192.362Z" fill="#AEC3FF"/>
<path d="M239.628 204.113H181.717V206.744H239.628V204.113Z" fill="#AEC3FF"/>
<path d="M244.554 198.239H227.425V200.87H244.554V198.239Z" fill="#AEC3FF"/>
<path d="M222.679 198.239H181.717V200.87H222.679V198.239Z" fill="#AEC3FF"/>
<path d="M288.919 255.918H262.001V228.957H288.919V255.918ZM263.268 254.649H287.65V230.228H263.268V254.649Z" fill="#AFCDFB"/>
<path d="M276.128 250.499C275.564 250.499 275.026 250.247 274.663 249.808L266.357 239.743C265.687 238.933 265.802 237.732 266.611 237.061C267.419 236.39 268.619 236.505 269.289 237.315L275.876 245.297L287.793 225.264C288.331 224.361 289.497 224.065 290.399 224.602C291.301 225.14 291.597 226.31 291.06 227.213L277.762 249.568C277.446 250.1 276.891 250.446 276.274 250.494C276.225 250.497 276.178 250.499 276.128 250.499Z" fill="#ECBC4E"/>
<path d="M244.554 232.938H181.717V235.569H244.554V232.938Z" fill="#AEC3FF"/>
<path d="M239.628 244.685H181.717V247.316H239.628V244.685Z" fill="#AEC3FF"/>
<path d="M244.554 238.81H227.425V241.441H244.554V238.81Z" fill="#AEC3FF"/>
<path d="M222.679 238.81H181.717V241.441H222.679V238.81Z" fill="#AEC3FF"/>
<path d="M164.305 244.941L166.079 243.288C167.11 244.507 168.266 245.189 169.876 245.189C171.3 245.189 172.373 244.321 172.373 242.957C172.373 241.531 171.073 240.725 169.051 240.725H167.875L167.463 239.134L171.362 234.98H165.11V232.769H174.662V234.671L170.639 238.805C172.928 239.136 174.888 240.313 174.888 242.917C174.888 245.582 172.826 247.484 169.834 247.484C167.318 247.482 165.522 246.429 164.305 244.941Z" fill="#AEC3FF"/>
<path d="M175.616 246.562C175.616 246.054 176.027 245.643 176.534 245.643C177.042 245.643 177.453 246.054 177.453 246.562C177.453 247.071 177.042 247.482 176.534 247.482C176.027 247.482 175.616 247.071 175.616 246.562Z" fill="#AEC3FF"/>
<path d="M240.136 283.609C234.737 283.609 230.033 279.769 228.952 274.478C228.867 274.054 229.139 273.641 229.562 273.555C229.984 273.469 230.398 273.741 230.484 274.165C231.417 278.731 235.476 282.044 240.136 282.044C244.751 282.044 248.802 278.769 249.769 274.259C249.86 273.836 250.277 273.567 250.698 273.657C251.12 273.748 251.39 274.163 251.299 274.588C250.178 279.815 245.483 283.609 240.136 283.609Z" fill="#AEC3FF"/>
<path d="M229.697 270.92C229.648 270.92 229.599 270.916 229.548 270.905C229.124 270.823 228.847 270.412 228.929 269.988C229.964 264.629 234.679 260.738 240.137 260.738C245.381 260.738 249.936 264.292 251.21 269.38C251.315 269.799 251.06 270.225 250.642 270.331C250.224 270.435 249.799 270.181 249.693 269.763C248.592 265.371 244.662 262.305 240.137 262.305C235.426 262.305 231.359 265.662 230.464 270.286C230.391 270.66 230.064 270.92 229.697 270.92Z" fill="#AEC3FF"/>
<path d="M240.137 288.43C231.189 288.43 223.907 281.139 223.907 272.174C223.907 263.212 231.187 255.918 240.137 255.918C249.087 255.918 256.366 263.21 256.366 272.174C256.366 281.137 249.087 288.43 240.137 288.43ZM240.137 258.145C232.414 258.145 226.131 264.438 226.131 272.174C226.131 279.91 232.414 286.203 240.137 286.203C247.86 286.203 254.143 279.91 254.143 272.174C254.143 264.438 247.86 258.145 240.137 258.145Z" fill="#AEC3FF"/>
<path d="M243.35 270.137H236.923V271.169H243.35V270.137Z" fill="#AEC3FF"/>
<path d="M243.35 274.355H236.923V275.387H243.35V274.355Z" fill="#AEC3FF"/>
<path d="M244.868 272.174H235.407V273.206H244.868V272.174Z" fill="#AEC3FF"/>
<path d="M134.849 202.27C134.849 202.27 135.355 201.131 135.681 200.592C136.008 200.053 137.408 198.473 137.646 198.831C137.883 199.19 138.836 201.596 138.33 202.27C137.825 202.945 138.363 204.117 135.848 204.828L134.849 202.27Z" fill="#FFB27D"/>
<path d="M106.885 195.081C106.885 195.081 119.765 205.85 124.789 204.854C128.715 204.075 134.742 202.003 134.742 202.003L135.947 205.092C135.947 205.092 130.542 212.436 124.907 212.484C116.098 212.559 109.59 208.664 109.59 208.664L106.885 195.081Z" fill="#6980E2"/>
<path d="M84.2969 308.672C84.2969 308.672 84.6711 314.713 85.8375 314.801C85.9927 314.812 91.7554 314.812 91.7554 314.812L99.1135 314.77C99.1135 314.77 99.0661 312.994 96.9139 312.62C94.7636 312.245 91.164 310.731 89.8607 307.884C88.4916 304.887 84.2969 308.672 84.2969 308.672Z" fill="#1C4B8E"/>
<path d="M83.8731 309.093C83.8731 309.093 86.1092 309.842 87.8561 309.842C89.8038 309.842 91.5745 309.31 91.5745 309.31C91.5745 309.31 91.9961 305.231 94.3125 296.245C95.5282 291.535 97.2624 285.477 99.7303 277.952C106.555 257.152 108.629 244.985 108.819 243.833C108.83 243.772 108.833 243.741 108.833 243.741L108.812 243.732L87.8306 234.504C87.8306 234.504 90.4245 263.17 87.115 274.173C86.6514 275.71 86.2553 277.502 85.9139 279.444C83.8257 291.396 83.8731 309.093 83.8731 309.093Z" fill="#31137C"/>
<path d="M94.3125 296.245C95.5282 291.535 97.2623 285.477 99.7302 277.952C106.555 257.152 108.629 244.985 108.819 243.833C108.817 243.798 108.815 243.767 108.812 243.732L87.8305 234.504C87.8305 234.504 90.4244 263.17 87.115 274.173C86.6513 275.712 94.3125 296.245 94.3125 296.245Z" fill="#31137C"/>
<path d="M100.685 308.672C100.685 308.672 101.059 314.713 102.225 314.801C102.38 314.812 108.143 314.812 108.143 314.812L115.501 314.77C115.501 314.77 115.454 312.994 113.303 312.62C111.153 312.245 107.553 310.731 106.25 307.884C104.879 304.887 100.685 308.672 100.685 308.672Z" fill="#1C4B8E"/>
<path d="M112.58 235.181C112.58 235.181 112.852 253.757 109.643 276.564C106.433 299.371 107.521 309.054 107.521 309.054C107.521 309.054 105.316 309.769 104.427 309.842C102.16 310.027 99.8365 309.31 99.8365 309.31C99.8365 309.31 95.2438 286.494 96.5599 275.078C97.876 263.661 90.2715 235.905 90.2715 235.905L112.58 235.181Z" fill="#31137C"/>
<path d="M97.7021 191.71L101.798 194.399L105.529 193.343C106.212 192.368 106.391 190.49 106.402 188.863C106.411 187.249 106.256 185.879 106.256 185.879L100.73 183.436L98.6696 182.526C98.6751 182.559 98.8302 184.221 98.8521 184.464C99.2355 188.779 97.7021 191.71 97.7021 191.71Z" fill="#FFB27D"/>
<path d="M112.674 240.344C107.576 245.274 88.2848 244.445 87.0947 239.013C85.9082 233.581 88.3907 192.776 97.0996 190.212C98.9067 189.68 108.567 192.809 108.567 192.809C108.567 192.809 110.082 196.78 111.077 201.837C111.27 202.821 111.832 213.25 112.254 223.004C112.451 227.566 112.617 231.983 112.701 235.217C112.78 238.247 112.783 240.236 112.674 240.344Z" fill="#485CC7"/>
<path d="M99.2631 184.542C100.384 186.44 104.318 188.102 106.4 188.863C106.409 187.248 106.254 185.879 106.254 185.879L100.729 183.436C99.5077 183.422 98.7629 183.696 99.2631 184.542Z" fill="#31137C"/>
<path d="M108.339 185.545C108.339 185.545 99.4366 188.326 97.7919 182.747C96.1472 177.167 93.8911 173.768 99.506 171.757C105.121 169.746 106.857 171.547 107.859 173.274C108.859 175.002 110.612 184.676 108.339 185.545Z" fill="#FFB27D"/>
<path d="M107.508 172.735C107.508 172.735 106.941 179.227 105.599 178.946C104.259 178.664 102.782 178.061 102.979 180.019C103.177 181.977 101.676 185.332 99.743 185.323C95.5975 185.307 91.0925 174.649 92.2279 172.629C95.5026 166.798 112.241 165.623 107.508 172.735Z" fill="#163560"/>
<path d="M106.199 190.353C106.084 190.306 99.5712 187.378 98.81 187.631C98.0488 187.883 97.0996 190.212 97.0996 190.212L108.567 192.809C108.567 192.81 107.663 190.971 106.199 190.353Z" fill="#6980E2"/>
<path d="M146.745 221.956L110.237 256.384C109.522 257.059 108.62 257.275 108.231 256.862L106.999 255.551C106.612 255.139 106.88 254.249 107.596 253.574L144.104 219.144C144.819 218.47 145.721 218.254 146.11 218.667L147.342 219.978C147.731 220.391 147.46 221.282 146.745 221.956Z" fill="#1F4D84"/>
<path d="M126.259 241.277L110.237 256.384C109.522 257.059 108.62 257.275 108.231 256.862L106.999 255.551C106.612 255.139 106.88 254.249 107.596 253.574L123.617 238.467L126.259 241.277Z" fill="#485CC7"/>
<path d="M138.353 208.957C139.755 213.582 142.351 217.916 146.118 221.468C157.629 232.314 175.739 231.76 186.567 220.232C197.253 208.854 196.855 191.042 185.78 180.153C185.634 180.006 185.483 179.862 185.331 179.719C173.822 168.873 155.714 169.424 144.886 180.953C137.603 188.707 135.467 199.453 138.353 208.957ZM146.533 182.504C152.834 175.794 161.813 173.121 170.245 174.583C175.159 175.435 179.884 177.69 183.787 181.367C194.389 191.357 194.896 208.063 184.922 218.682C181.25 222.591 176.672 225.129 171.822 226.279C163.492 228.253 154.367 226.134 147.668 219.821C137.066 209.831 136.557 193.125 146.533 182.504Z" fill="#1F4D84"/>
<g opacity="0.5">
<path opacity="0.5" d="M184.923 218.682C181.25 222.591 176.672 225.128 171.82 226.28C163.493 228.253 154.366 226.134 147.667 219.821C137.065 209.831 136.558 193.125 146.532 182.504C152.833 175.794 161.812 173.121 170.243 174.583C175.157 175.435 179.883 177.69 183.786 181.367C194.388 191.357 194.897 208.063 184.923 218.682Z" fill="#B3CFF9"/>
</g>
<path d="M112.701 235.218C92.5855 220.859 94.2576 201.7 94.2576 201.7C101.61 205.854 108.906 215.038 112.254 223.004C112.451 227.568 112.617 231.985 112.701 235.218Z" fill="#6980E2"/>
<path d="M132.557 228.68C133.975 228.352 134.928 227.277 135.125 227.089C135.125 227.089 135.731 227.131 135.027 228.424C134.968 228.531 134.837 228.809 134.738 229.007C134.698 229.087 134.755 229.181 134.844 229.188C135.662 229.25 136.485 228.926 138.062 229.255C138.279 229.301 138.343 229.822 138.334 230.045C138.32 230.422 138.347 230.844 137.911 231.422C137.657 231.758 136.947 232.119 135.368 232.755C134.766 232.998 133.046 232.815 131.434 232.259L130.146 231.662L130.545 229.265L130.868 229.332C131.385 229.44 132.022 228.811 132.557 228.68Z" fill="#FFB27D"/>
<path d="M100.501 192.811C100.501 192.811 82.426 196.257 105.818 222.476C109.56 226.668 129.773 232.128 129.773 232.128C129.773 232.128 131.823 230.38 130.79 228.966C130.79 228.966 116.873 218.843 113.81 217.234C112.432 216.51 108.463 201.077 106.218 197.36C103.973 193.642 100.501 192.811 100.501 192.811Z" fill="#485CC7"/>
<path d="M135.338 202.589C135.338 202.589 135.929 201.457 136.044 200.859C136.159 200.263 136.904 198.52 137.211 198.215C137.333 198.093 137.738 198.252 137.786 198.778C137.806 199.009 137.694 199.426 137.496 199.923C137.172 200.733 137.225 201.832 137.112 202.197C136.833 203.112 135.338 202.589 135.338 202.589Z" fill="#FFB27D"/>
<path d="M195.035 306.262C195.035 306.569 195.053 306.875 195.092 307.173C195.207 308.127 195.502 309.025 195.941 309.835C196.284 310.466 196.716 311.04 197.218 311.544C198.569 312.896 200.431 313.731 202.492 313.731H307.366C311.484 313.731 314.824 310.387 314.824 306.262C314.824 304.198 313.99 302.331 312.639 300.98C311.29 299.627 309.427 298.792 307.366 298.792H202.492C198.374 298.792 195.035 302.136 195.035 306.262Z" fill="#2B478B"/>
<path d="M203.036 297.44H238.994C239.624 297.44 240.139 296.925 240.139 296.294C240.139 295.663 239.624 295.147 238.994 295.147H203.036C202.406 295.147 201.892 295.663 201.892 296.294C201.892 296.923 202.406 297.44 203.036 297.44Z" fill="#2B478B"/>
<path d="M205.021 298.791H208.918V297.438H205.021V298.791Z" fill="#233862"/>
<path d="M195.941 309.835C196.284 310.466 196.717 311.04 197.219 311.544C198.569 312.895 200.431 313.731 202.492 313.731H224.707V309.835H195.941Z" fill="#233862"/>
<path d="M328.707 304.074V308.449C328.707 308.928 328.643 309.394 328.522 309.835C327.916 312.08 325.868 313.731 323.435 313.731H214.191C211.758 313.731 209.71 312.08 209.104 309.835C208.985 309.394 208.919 308.928 208.919 308.449V304.074C208.919 301.156 211.278 298.792 214.191 298.792H323.435C326.348 298.792 328.707 301.156 328.707 304.074Z" fill="#44474E"/>
<path d="M328.522 309.835C327.916 312.08 325.868 313.731 323.435 313.731H214.191C211.758 313.731 209.71 312.08 209.104 309.835H328.522Z" fill="#44474E"/>
<path d="M317.856 306.288C317.856 308.608 318.698 310.681 320.025 312.054C320.056 312.085 320.083 312.115 320.114 312.146C321.14 313.17 322.442 313.782 323.857 313.782C326.069 313.782 331.549 310.44 334.946 308.22C336.638 307.114 337.813 306.286 337.813 306.286C337.813 306.286 336.638 305.457 334.946 304.351C331.549 302.13 326.067 298.788 323.857 298.788C323.216 298.788 322.601 298.914 322.02 299.144C321.045 299.537 320.177 300.232 319.492 301.143C318.736 302.143 318.2 303.401 317.973 304.797C317.971 304.814 317.968 304.83 317.968 304.847C317.895 305.313 317.856 305.794 317.856 306.288Z" fill="#485CC7"/>
<path d="M317.856 306.288C317.856 308.608 318.698 310.681 320.025 312.054L336.839 306.26L317.966 304.849C317.895 305.313 317.856 305.794 317.856 306.288Z" fill="#6980E2"/>
<path d="M319.492 301.146L336.265 305.734L322.02 299.146C321.045 299.539 320.178 300.236 319.492 301.146Z" fill="#485CC7"/>
<path d="M333.852 306.287C333.852 307.18 334.308 307.94 334.947 308.222C336.639 307.116 337.815 306.287 337.815 306.287C337.815 306.287 336.639 305.459 334.947 304.353C334.308 304.633 333.852 305.393 333.852 306.287Z" fill="#182D4C"/>
<path d="M363.601 169.727C360.822 168.285 358.597 169.192 358.597 169.192C350.096 168.191 347.617 178.121 347.732 181.537C347.846 184.952 348.236 188.622 344.441 193.061C333.476 205.881 356.441 206.446 356.441 206.446C356.635 196.204 368.894 199.941 368.357 200.978C384.07 204.757 369.918 173.011 363.601 169.727Z" fill="#163560"/>
<path d="M330.813 210.381C330.813 210.381 329.318 208.101 328.113 208.057C326.908 208.013 324.678 207.386 324.857 207.834C325.035 208.28 326.419 208.326 326.552 208.594C326.686 208.863 324.501 209.265 323.875 209.309C323.25 209.353 321.777 209.309 321.823 209.622C321.867 209.935 324.477 211.231 326.317 211.052C328.159 210.873 330.433 211.588 330.433 211.588L330.813 210.381Z" fill="#FFB27D"/>
<path d="M352.431 211.118C352.431 211.118 351.619 212.728 350.144 214.581C348.368 216.809 345.63 219.384 342.191 219.892C340.548 220.135 338.942 219.78 337.465 219.124C337.461 219.122 337.459 219.122 337.459 219.122C333.283 217.265 330.143 212.995 330.143 212.995C329.408 210.984 330.612 209.62 330.612 209.62C330.612 209.62 339.046 211.52 339.849 211.118C340.652 210.715 345.59 199.743 346.479 197.915C348.37 194.03 351.369 192.916 351.369 192.916L352.431 211.118Z" fill="#31137C"/>
<path d="M350.144 214.582C348.368 216.811 345.63 219.386 342.191 219.894C340.548 220.137 338.942 219.782 337.465 219.126C337.629 219.148 341.8 219.663 343.461 216.685C345.157 213.646 346.992 208.819 349.511 210.428C350.598 211.12 350.549 212.846 350.144 214.582Z" fill="#31137C"/>
<path d="M383.893 302.298C383.893 302.298 386.467 304.651 385.965 306.323C385.463 307.994 383.141 309.109 382.827 311.151C382.513 313.194 381.257 314.309 380.129 314.309C378.999 314.309 374.743 314.309 374.743 314.309C374.743 314.309 373.91 312.872 375.92 312.438C377.928 312.005 378.685 309.604 378.56 307.376C378.434 305.147 378.748 302.176 378.748 302.176L383.015 301.185L383.893 302.298Z" fill="#1C4B8E"/>
<path d="M362.113 303.297C362.113 303.297 363.038 313.261 361.908 313.819L347.451 313.79C347.451 313.79 347.451 312.119 349.773 311.747C352.095 311.376 356.175 310.014 356.865 306.981C357.555 303.946 362.113 303.297 362.113 303.297Z" fill="#1C4B8E"/>
<path d="M373.235 204.397C373.235 204.397 373.45 207.439 373.235 211.09C373.091 213.511 370.648 216.753 370.301 217.553C369.431 219.565 368.45 219.892 368.45 219.892L360.859 221.755L358.19 222.41L349.773 219.892C349.773 219.892 345.94 209.174 347.479 203.141C349.017 197.107 351.37 192.916 351.37 192.916C351.37 192.916 357.076 190.66 367.182 192.346L373.235 204.397Z" fill="#31137C"/>
<path d="M371.014 212.078C370.87 214.498 370.649 216.751 370.302 217.554C369.431 219.565 368.451 219.892 368.451 219.892L360.859 221.755L357.562 220.784C357.562 220.784 368.568 219.113 367.348 209.629L371.014 212.078Z" fill="#F2CCAA"/>
<path d="M350.308 221.519C350.308 221.519 346.139 234.515 345.873 238.94C345.604 243.365 353.84 301.794 354.173 303.832C354.485 305.754 356.867 306.979 356.867 306.979C356.867 306.979 357.962 307.626 359.526 307.184C361.697 306.569 362.381 305.834 362.381 305.834C362.381 305.834 365.625 264.162 363.617 249.278C361.609 234.391 361.585 221.519 361.585 221.519H350.308Z" fill="#6980E2"/>
<path d="M367.967 221.132C367.967 221.132 374.325 229.678 374.918 235.453C375.511 241.229 375.847 261.52 377.11 267.152C378.373 272.783 383.014 283.62 383.014 301.183C383.014 301.183 382.532 302.191 381.042 302.726C380.566 302.898 379.929 303.065 379.308 303.207C378.08 303.489 376.82 302.887 376.26 301.757C373.124 295.431 363.131 275.028 362.618 270.792C362.255 267.795 359.101 247.958 352.219 236.318C350.567 233.525 353.232 222.41 353.232 222.41L367.967 221.132Z" fill="#485CC7"/>
<path d="M349.641 219.513C349.641 219.513 351.315 220.839 354.639 220.907C358.61 220.987 368.448 219.892 368.448 219.892C368.448 219.892 368.885 221.115 368.868 222.408C368.868 222.408 356.852 225.443 349.89 222.85C349.888 222.85 348.99 221.159 349.641 219.513Z" fill="#233862"/>
<path d="M353.687 224.333C352.688 224.333 351.874 223.412 351.874 222.28C351.874 221.146 352.686 220.227 353.687 220.227C354.685 220.227 355.499 221.148 355.499 222.28C355.498 223.412 354.685 224.333 353.687 224.333ZM353.687 220.826C353.019 220.826 352.475 221.477 352.475 222.278C352.475 223.079 353.019 223.73 353.687 223.73C354.355 223.73 354.897 223.079 354.897 222.278C354.897 221.479 354.355 220.826 353.687 220.826Z" fill="white"/>
<path d="M380.107 222.978L370.349 231.489C369.644 232.104 368.575 232.03 367.961 231.325L355.51 217.003C354.897 216.297 354.97 215.226 355.675 214.612L365.433 206.101C366.138 205.486 367.207 205.559 367.821 206.265L380.272 220.587C380.887 221.292 380.814 222.362 380.107 222.978Z" fill="#2B478B"/>
<path d="M365.672 221.903C365.534 221.94 360.488 222.534 360.488 223.578C360.488 224.785 361.967 226.403 363.361 226.326C363.926 226.295 366.529 223.898 366.529 223.898L365.672 221.903Z" fill="#FFB27D"/>
<path d="M363.082 191.794C362.509 190.399 362.173 188.276 362.182 185.647L361.801 185.722L355.392 186.992C355.392 186.992 355.538 189.013 355.541 190.914C355.541 190.931 355.541 190.945 355.541 190.962C355.549 192.615 354.426 194.273 357.073 194.928C357.892 195.132 364.287 194.721 363.082 191.794Z" fill="#FFB27D"/>
<path d="M355.394 186.994C355.394 186.994 355.54 189.015 355.543 190.916C359.128 190.816 361.025 187.539 361.801 185.722L355.394 186.994Z" fill="#31137C"/>
<path d="M354.196 188.795C354.196 188.795 362.681 188.936 362.686 183.643C362.691 178.35 363.79 174.803 358.374 174.488C352.959 174.176 351.903 176.194 351.473 177.96C351.04 179.727 351.989 188.622 354.196 188.795Z" fill="#FFB27D"/>
<path d="M354.51 174.358C354.51 174.358 356.834 180.569 360.399 181.487C363.964 182.405 365.51 181.449 365.51 181.449C365.51 181.449 362.776 179.273 362.208 175.476C362.206 175.474 356.261 171.404 354.51 174.358Z" fill="#163560"/>
<path d="M355.085 174.863C355.085 174.863 353.362 175.508 352.654 176.766C351.96 177.997 351.371 179.626 351.507 181.626C351.507 181.626 349.757 177.404 351.725 175.017C353.809 172.484 355.085 174.863 355.085 174.863Z" fill="#163560"/>
<path d="M365.673 221.903C365.673 221.903 364.464 221.514 363.656 221.627C362.847 221.74 362.25 221.611 362.25 221.837C362.25 222.064 363.292 222.17 363.515 222.278C363.736 222.388 365.673 221.903 365.673 221.903Z" fill="#FFB27D"/>
<path d="M367.181 192.346C367.181 192.346 373.202 192.768 375.512 198.391C377.821 204.013 382.2 213.449 382.2 215.038C382.2 216.627 379.754 221.519 366.613 224.333C366.613 224.333 365.255 222.902 365.337 221.768C365.337 221.768 373.54 214.711 373.518 213.886C373.476 212.326 372.173 210.266 364.972 203.051C363.013 201.091 367.181 192.346 367.181 192.346Z" fill="#31137C"/>
<path d="M163.352 25.2352C163.352 25.2352 158.52 24.416 155.457 26.7344C152.394 29.0528 151.903 28.3032 150.174 29.7348C148.445 31.1664 150.214 32.8704 149.261 33.8266C148.309 34.781 148.272 36.6222 149.685 37.0994C151.1 37.5766 150.147 40.1674 153.21 40.5093C156.273 40.8494 154.9 42.27 157.806 42.4858C160.712 42.7015 163.114 42.8021 164.646 43.4457C166.177 44.0893 167.565 43.4237 168.003 42.2572C168.441 41.0889 169.666 42.5955 170.023 40.9993C170.381 39.4032 169.105 38.7724 169.819 37.4761C170.535 36.1798 172.302 26.9739 163.352 25.2352Z" fill="#233862"/>
<path d="M171.709 118.125C171.375 118.513 171.334 118.946 171.504 119.405C171.504 119.407 171.506 119.409 171.508 119.41C171.822 120.261 172.846 121.206 174.034 122.148C174.186 122.268 174.321 122.378 174.439 122.48C174.47 122.508 174.502 122.533 174.531 122.561C174.554 122.581 174.578 122.603 174.6 122.623C175.71 123.632 175.296 123.868 177.291 125.919C179.565 128.256 181.119 128.287 181.56 128.07C181.933 127.885 181.164 126.642 180.312 125.245C180.27 125.177 180.23 125.109 180.188 125.042C180.074 124.855 179.961 124.667 179.848 124.481C178.85 122.8 179.098 122.005 179.313 119.493C179.488 117.45 182.404 108.067 182.404 108.067L178.072 107.351C178.072 107.351 176.822 114.816 175.394 115.973C174.631 116.591 173.771 116.604 173.038 117.063C172.986 117.094 172.935 117.127 172.884 117.162C172.468 117.445 172.043 117.736 171.709 118.125Z" fill="#FFB27D"/>
<path d="M171.709 118.125C171.375 118.513 171.334 118.946 171.504 119.405C171.504 119.407 171.506 119.409 171.508 119.411C171.891 120.259 172.89 121.199 174.038 122.139C174.188 122.261 174.321 122.374 174.438 122.48C174.469 122.508 174.5 122.533 174.529 122.561C174.553 122.581 174.576 122.603 174.598 122.623C175.708 123.632 175.294 123.868 177.289 125.92C179.563 128.256 181.117 128.287 181.558 128.07C181.931 127.885 181.162 126.642 180.31 125.245C179.87 125.088 177.822 124.27 176.265 122.303C174.894 120.575 173.97 118.35 173.036 117.063C172.985 117.094 172.934 117.127 172.882 117.162C172.468 117.445 172.043 117.736 171.709 118.125Z" fill="#233862"/>
<path d="M206.574 115.173C206.851 116.509 208.751 116.271 210.874 115.736C212.997 115.2 212.495 115.822 215.52 115.465C218.545 115.109 219.454 113.971 219.543 113.52C219.623 113.119 218.127 112.989 216.52 112.816C216.318 112.794 216.115 112.77 215.912 112.748C214.1 112.534 212.765 111.371 211.113 110.422C209.549 109.523 207.198 105.83 207.198 105.83L203.049 106.188C203.049 106.188 205.25 109.486 206.103 110.922C206.605 111.766 206.586 112.887 206.53 113.752C206.502 114.22 206.475 114.701 206.574 115.173Z" fill="#FFB27D"/>
<path d="M210.875 115.736C212.997 115.2 212.496 115.822 215.52 115.465C218.545 115.108 219.454 113.971 219.543 113.52C219.624 113.119 218.127 112.989 216.52 112.816L216.506 112.847C216.506 112.847 214.701 114.149 212.182 114.227C210.128 114.291 207.95 113.717 206.532 113.75C206.503 114.22 206.475 114.701 206.574 115.172C206.85 116.507 208.752 116.271 210.875 115.736Z" fill="#233862"/>
<path d="M190.479 88.6995L186.673 99.1852L181.704 112.876C181.704 112.876 180.33 113.019 179.012 112.649C177.798 112.307 176.4 111.399 176.4 111.399C176.4 111.399 177.703 96.726 180.268 88.2918C180.925 86.127 181.666 84.3736 182.491 83.3844C186.524 78.5392 190.479 88.6995 190.479 88.6995Z" fill="#33353A"/>
<path d="M186.416 72.118C183.868 71.3154 176.625 72.4197 169.352 73.9007L167.81 71.3922L152.069 70.2732C152.069 70.2732 147.141 81.194 149.853 89.1675C150.379 90.7143 152.9 90.7692 152.9 90.7692C152.9 90.7692 162.122 90.8697 165.161 90.8478C172.985 90.7929 181.681 85.3444 182.809 85.1104C184.656 84.7264 185.421 88.427 187.298 92.3032C189.174 96.1793 204.803 109.408 204.803 109.408C204.803 109.408 207.191 109.415 208.175 109.036C209.231 108.63 209.617 108.109 209.617 108.109C209.617 108.109 192.162 73.9299 186.416 72.118Z" fill="#44474E"/>
<path d="M162.85 47.095C162.876 47.1114 160.101 48.0823 158.235 47.2705C156.481 46.5081 155.136 43.6357 155.161 43.6339C155.957 43.5918 156.826 42.8879 157.467 38.3115L157.806 38.4304L163.518 40.4434C163.518 40.4434 163.118 42.2773 162.863 44.0233C162.649 45.4879 162.538 46.8902 162.85 47.095Z" fill="#FFB27D"/>
<path d="M163.518 40.4434C163.518 40.4434 163.275 41.7288 162.935 43.5663C159.659 42.9995 158.279 40.2003 157.804 38.4304L163.518 40.4434Z" fill="#31137C"/>
<path d="M164.38 42.2535C164.38 42.2535 156.577 41.2607 157.27 36.4027C157.962 31.5448 157.422 28.1458 162.432 28.5737C167.443 29.0015 168.146 30.9944 168.308 32.671C168.469 34.3513 166.426 42.387 164.38 42.2535Z" fill="#FFB27D"/>
<path d="M168.003 30.0162C168.003 30.0162 163.043 34.3586 159.652 34.7298C156.26 35.1009 154.968 34.0185 154.968 34.0185C154.968 34.0185 156.957 32.3401 158.142 29.6469C158.491 28.8534 159.237 28.3049 160.099 28.2244C162.521 27.9977 167.114 27.8697 168.003 30.0162Z" fill="#233862"/>
<path d="M164.882 29.6524C164.882 29.6524 166.563 31.2577 167.096 32.4535C167.611 33.6072 167.782 36.3735 167.386 37.476C167.386 37.476 169.951 32.3913 168.461 29.9413C166.882 27.3414 164.882 29.6524 164.882 29.6524Z" fill="#233862"/>
<path d="M169.494 58.5518C169.37 74.358 169.518 71.0541 167.802 72.5662C167.389 72.93 166.221 73.1531 164.682 73.2664C159.847 73.623 151.335 72.8843 151.005 71.9902C149.867 68.8985 150.649 67.9313 149.683 63.1921C149.583 62.6875 149.458 62.1427 149.312 61.5484C148.513 58.2958 147.75 57.1915 150.468 51.9367C152.932 47.1775 155.5 43.3105 155.734 43.4476C162.351 47.3201 162.86 44.0217 162.86 44.0217C162.86 44.0217 169.556 50.8415 169.494 58.5518Z" fill="#485CC7"/>
<path d="M186.672 99.1852L181.703 112.876C181.703 112.876 180.328 113.019 179.011 112.649C177.797 112.307 176.398 111.399 176.398 111.399C176.398 111.399 177.702 96.726 180.266 88.2917L186.672 99.1852Z" fill="#44474E"/>
<path d="M162.863 44.0215C162.863 44.0215 169.651 45.1258 170.469 48.0439C171.285 50.962 176.093 68.1212 176.093 68.1212C176.093 68.1212 172.651 68.7666 171.046 67.1814C169.441 65.598 165.4 52.421 165.4 52.421L162.863 44.0215Z" fill="#485CC7"/>
<path d="M164.684 73.2664C159.849 73.6229 151.337 72.8842 151.007 71.9902C149.869 68.8984 150.651 67.9312 149.685 63.1921L151.972 56.5935C151.972 56.5935 151.638 63.9253 153.81 65.8396C155.979 67.752 162.673 69.4981 163.733 71.1016C164.244 71.8713 164.582 72.6447 164.684 73.2664Z" fill="#6980E2"/>
<path d="M159.119 70.2221C159.119 70.2221 163.885 69.1232 164.659 69.5419C165.433 69.9606 167.326 71.4928 167.565 72.0285C167.804 72.5642 165.847 71.6317 165.212 71.4672C164.801 71.3593 163.72 71.7433 163.187 71.9261C160.94 72.694 159.557 72.3174 159.557 72.3174L159.119 70.2221Z" fill="#FFB27D"/>
<path d="M155.733 43.4458C155.733 43.4458 149.326 43.8864 147.13 47.002C144.036 51.3864 137.972 70.0266 141.54 72.4821C145.56 75.2466 159.745 73.0836 159.745 73.0836C159.745 73.0836 160.201 70.8676 159.537 69.8017C158.872 68.7358 148.174 67.0829 147.677 66.5929C147.181 66.1029 153.774 56.9172 153.763 55.4344C153.754 53.9534 155.733 43.4458 155.733 43.4458Z" fill="#485CC7"/>
<path d="M164.898 70.873C164.898 70.873 165.907 72.1584 166.236 72.3101C166.565 72.4619 166.776 72.4217 166.776 72.4217L166.094 71.2113L164.898 70.873Z" fill="#FFB27D"/>
<path d="M164.657 69.5437L167.574 70.9369C167.574 70.9369 167.451 71.1399 167.094 71.1271C166.736 71.1124 165.83 70.7888 165.83 70.7888L164.657 69.5437Z" fill="#FFB27D"/>
<path d="M165.614 74.3945L188.617 74.2318L195.415 56.9482L172.448 57.111L165.614 74.3945Z" fill="#233862"/>
<path d="M188.882 73.5588L158.507 73.7746L158.511 74.4456L188.617 74.2317L188.882 73.5588Z" fill="#233862"/>
<path d="M182.749 65.6567C182.918 65.0497 182.564 64.5615 181.96 64.5652C181.356 64.5689 180.728 65.0643 180.558 65.6714C180.388 66.2784 180.742 66.7665 181.347 66.7629C181.953 66.7592 182.581 66.2637 182.749 65.6567Z" fill="#EBF3FA"/>
<path d="M48.6135 313.676H65.3997C66.2996 312.912 64.7773 311.177 63.1873 311.06C62.4974 311.007 61.623 311.153 60.6245 311.363C60.3927 308.29 59.0748 294.475 54.1024 295.031C48.5131 295.652 54.1024 301.116 55.6832 304.348C56.8533 306.743 58.089 310.179 58.6531 311.799C58.1986 311.897 57.7294 311.994 57.2494 312.082C56.5083 309.804 53.7519 302.139 50.2454 302.586C46.1291 303.108 47.7829 306.182 50.7017 308.005C52.8429 309.347 55.4696 311.254 56.72 312.173C55.6613 312.347 54.5569 312.462 53.438 312.437C50.5612 312.371 49.1574 313.219 48.6135 313.676Z" fill="#485CC7"/>
<path d="M411.918 313.638H393.347C392.352 312.793 394.035 310.872 395.795 310.744C396.56 310.685 397.525 310.846 398.63 311.08C398.885 307.679 400.345 292.396 405.845 293.01C412.03 293.698 405.845 299.74 404.097 303.319C402.801 305.968 401.435 309.769 400.811 311.563C401.313 311.672 401.833 311.778 402.364 311.877C403.184 309.356 406.234 300.876 410.113 301.37C414.667 301.947 412.837 305.348 409.609 307.367C407.242 308.851 404.334 310.959 402.952 311.98C404.122 312.171 405.345 312.299 406.585 312.27C409.763 312.193 411.316 313.131 411.918 313.638Z" fill="#485CC7"/>
<path d="M438.469 315H20.4556C20.1636 315 19.9263 314.76 19.9263 314.47V314.144C19.9263 313.852 20.1654 313.614 20.4556 313.614H438.469C438.761 313.614 439 313.854 439 314.144V314.47C439 314.762 438.761 315 438.469 315Z" fill="#233862"/>
</g>
<defs>
<clipPath id="clip0_6_499">
<rect width="439" height="315" fill="white"/>
</clipPath>
</defs>
</svg>
