<svg width="42" height="50" viewBox="0 0 42 50" fill="none" xmlns="http://www.w3.org/2000/svg">
<path d="M37.5376 15.9862L39.9263 13.6237C40.4206 13.1295 40.6983 12.459 40.6983 11.76C40.6983 11.061 40.4206 10.3905 39.9263 9.89625C39.432 9.40195 38.7616 9.12426 38.0626 9.12426C37.3635 9.12426 36.6931 9.40195 36.1988 9.89625L33.8363 12.285C30.1575 9.43912 25.638 7.89504 20.9869 7.89504C16.3359 7.89504 11.8164 9.43912 8.13757 12.285L5.74882 9.87C5.25104 9.3757 4.57729 9.09939 3.87579 9.10185C3.17428 9.10431 2.50249 9.38535 2.00819 9.88312C1.5139 10.3809 1.23759 11.0547 1.24005 11.7562C1.24251 12.4577 1.52354 13.1295 2.02132 13.6237L4.43632 16.0125C1.55673 19.6811 -0.0057308 24.2113 6.88511e-05 28.875C-0.00850357 32.223 0.783535 35.5245 2.31013 38.5042C3.83673 41.4839 6.05363 44.0554 8.77595 46.0043C11.4983 47.9531 14.6471 49.2228 17.9598 49.7075C21.2725 50.1922 24.6532 49.8778 27.8197 48.7906C30.9862 47.7033 33.8469 45.8747 36.1632 43.4573C38.4794 41.0399 40.1841 38.1036 41.1351 34.8935C42.086 31.6834 42.2557 28.2925 41.6299 25.0035C41.0041 21.7145 39.601 18.6228 37.5376 15.9862ZM21.0001 44.625C17.885 44.625 14.8399 43.7013 12.2498 41.9706C9.65976 40.24 7.64105 37.7802 6.44897 34.9023C5.25689 32.0243 4.94498 28.8575 5.5527 25.8023C6.16042 22.7471 7.66046 19.9407 9.86314 17.7381C12.0658 15.5354 14.8722 14.0353 17.9274 13.4276C20.9826 12.8199 24.1494 13.1318 27.0273 14.3239C29.9053 15.516 32.3651 17.5347 34.0957 20.1248C35.8263 22.7148 36.7501 25.7599 36.7501 28.875C36.7501 33.0522 35.0907 37.0582 32.137 40.0119C29.1833 42.9656 25.1772 44.625 21.0001 44.625ZM15.7501 5.25H26.2501C26.9463 5.25 27.6139 4.97344 28.1062 4.48115C28.5985 3.98887 28.8751 3.32119 28.8751 2.625C28.8751 1.92881 28.5985 1.26113 28.1062 0.768845C27.6139 0.276562 26.9463 0 26.2501 0H15.7501C15.0539 0 14.3862 0.276562 13.8939 0.768845C13.4016 1.26113 13.1251 1.92881 13.1251 2.625C13.1251 3.32119 13.4016 3.98887 13.8939 4.48115C14.3862 4.97344 15.0539 5.25 15.7501 5.25ZM23.6251 21C23.6251 20.3038 23.3485 19.6361 22.8562 19.1438C22.3639 18.6516 21.6963 18.375 21.0001 18.375C20.3039 18.375 19.6362 18.6516 19.1439 19.1438C18.6516 19.6361 18.3751 20.3038 18.3751 21V25.9613C17.7807 26.4929 17.3617 27.1924 17.1737 27.9674C16.9856 28.7423 17.0372 29.5561 17.3218 30.3011C17.6063 31.046 18.1103 31.687 18.7672 32.1392C19.424 32.5915 20.2026 32.8336 21.0001 32.8336C21.7975 32.8336 22.5762 32.5915 23.233 32.1392C23.8898 31.687 24.3938 31.046 24.6784 30.3011C24.9629 29.5561 25.0146 28.7423 24.8265 27.9674C24.6384 27.1924 24.2194 26.4929 23.6251 25.9613V21Z" fill="#311D7D"/>
</svg>
