<svg width="42" height="32" viewBox="0 0 42 32" fill="none" xmlns="http://www.w3.org/2000/svg">
<path d="M10.5 20.7407H16.8C17.357 20.7407 17.8911 20.5222 18.2849 20.1333C18.6787 19.7443 18.9 19.2167 18.9 18.6667C18.9 18.1166 18.6787 17.589 18.2849 17.2001C17.8911 16.8111 17.357 16.5926 16.8 16.5926H10.5C9.94304 16.5926 9.4089 16.8111 9.01508 17.2001C8.62125 17.589 8.4 18.1166 8.4 18.6667C8.4 19.2167 8.62125 19.7443 9.01508 20.1333C9.4089 20.5222 9.94304 20.7407 10.5 20.7407ZM35.7 0H6.3C4.62914 0 3.02671 0.655554 1.84523 1.82245C0.663748 2.98934 0 4.57199 0 6.22222V24.8889C0 26.5391 0.663748 28.1218 1.84523 29.2887C3.02671 30.4556 4.62914 31.1111 6.3 31.1111H35.7C37.3709 31.1111 38.9733 30.4556 40.1548 29.2887C41.3363 28.1218 42 26.5391 42 24.8889V6.22222C42 4.57199 41.3363 2.98934 40.1548 1.82245C38.9733 0.655554 37.3709 0 35.7 0ZM37.8 24.8889C37.8 25.439 37.5788 25.9665 37.1849 26.3555C36.7911 26.7444 36.257 26.963 35.7 26.963H6.3C5.74304 26.963 5.2089 26.7444 4.81508 26.3555C4.42125 25.9665 4.2 25.439 4.2 24.8889V12.4444H37.8V24.8889ZM37.8 8.2963H4.2V6.22222C4.2 5.67214 4.42125 5.1446 4.81508 4.75563C5.2089 4.36667 5.74304 4.14815 6.3 4.14815H35.7C36.257 4.14815 36.7911 4.36667 37.1849 4.75563C37.5788 5.1446 37.8 5.67214 37.8 6.22222V8.2963Z" fill="#311D7D"/>
</svg>
