<svg width="43" height="43" viewBox="0 0 43 43" fill="none" xmlns="http://www.w3.org/2000/svg">
<path d="M19.5455 15.6364H27.3636C27.882 15.6364 28.3792 15.4304 28.7457 15.0639C29.1123 14.6973 29.3182 14.2002 29.3182 13.6818C29.3182 13.1634 29.1123 12.6663 28.7457 12.2997C28.3792 11.9332 27.882 11.7273 27.3636 11.7273H23.4545V9.77273C23.4545 9.25435 23.2486 8.7572 22.8821 8.39065C22.5155 8.02411 22.0184 7.81818 21.5 7.81818C20.9816 7.81818 20.4845 8.02411 20.1179 8.39065C19.7514 8.7572 19.5455 9.25435 19.5455 9.77273V11.7273C17.9903 11.7273 16.4989 12.345 15.3992 13.4447C14.2996 14.5443 13.6818 16.0358 13.6818 17.5909C13.6818 19.146 14.2996 20.6375 15.3992 21.7371C16.4989 22.8368 17.9903 23.4545 19.5455 23.4545H23.4545C23.9729 23.4545 24.4701 23.6605 24.8366 24.027C25.2032 24.3936 25.4091 24.8907 25.4091 25.4091C25.4091 25.9275 25.2032 26.4246 24.8366 26.7912C24.4701 27.1577 23.9729 27.3636 23.4545 27.3636H15.6364C15.118 27.3636 14.6208 27.5696 14.2543 27.9361C13.8877 28.3027 13.6818 28.7998 13.6818 29.3182C13.6818 29.8366 13.8877 30.3337 14.2543 30.7003C14.6208 31.0668 15.118 31.2727 15.6364 31.2727H19.5455V33.2273C19.5455 33.7456 19.7514 34.2428 20.1179 34.6093C20.4845 34.9759 20.9816 35.1818 21.5 35.1818C22.0184 35.1818 22.5155 34.9759 22.8821 34.6093C23.2486 34.2428 23.4545 33.7456 23.4545 33.2273V31.2727C25.0097 31.2727 26.5011 30.6549 27.6008 29.5553C28.7004 28.4557 29.3182 26.9642 29.3182 25.4091C29.3182 23.854 28.7004 22.3625 27.6008 21.2629C26.5011 20.1632 25.0097 19.5455 23.4545 19.5455H19.5455C19.0271 19.5455 18.5299 19.3395 18.1634 18.973C17.7968 18.6064 17.5909 18.1093 17.5909 17.5909C17.5909 17.0725 17.7968 16.5754 18.1634 16.2088C18.5299 15.8423 19.0271 15.6364 19.5455 15.6364ZM21.5 0C17.2477 0 13.0909 1.26095 9.55525 3.6234C6.01959 5.98585 3.26388 9.34369 1.6366 13.2723C0.00931573 17.2009 -0.416456 21.5238 0.413126 25.6944C1.24271 29.865 3.29038 33.696 6.29721 36.7028C9.30404 39.7096 13.135 41.7573 17.3056 42.5869C21.4762 43.4165 25.7991 42.9907 29.7277 41.3634C33.6563 39.7361 37.0141 36.9804 39.3766 33.4448C41.739 29.9091 43 25.7523 43 21.5C43 15.7978 40.7348 10.3292 36.7028 6.2972C32.6708 2.26517 27.2022 0 21.5 0ZM21.5 39.0909C18.0209 39.0909 14.6198 38.0592 11.727 36.1263C8.83421 34.1934 6.57954 31.4461 5.24813 28.2317C3.91671 25.0174 3.56835 21.4805 4.2471 18.0682C4.92585 14.6559 6.60122 11.5215 9.06136 9.06135C11.5215 6.60121 14.6559 4.92584 18.0682 4.24709C21.4805 3.56835 25.0174 3.9167 28.2318 5.24812C31.4461 6.57953 34.1934 8.8342 36.1263 11.727C38.0592 14.6198 39.0909 18.0208 39.0909 21.5C39.0909 26.1654 37.2376 30.6397 33.9387 33.9386C30.6397 37.2376 26.1654 39.0909 21.5 39.0909Z" fill="#311D7D"/>
</svg>
