<svg width="53" height="53" viewBox="0 0 53 53" fill="none" xmlns="http://www.w3.org/2000/svg">
<circle cx="26.5" cy="26.5" r="26.5" fill="#17016D"/>
<path d="M22.1406 9H30.8594L29.4062 30.3008H23.5937L22.1406 9ZM26.5 42C25.2187 42 24.1406 41.596 23.2656 40.7881C22.4219 39.9492 22 38.9393 22 37.7585C22 36.5777 22.4219 35.5989 23.2656 34.822C24.1094 34.0141 25.1875 33.6102 26.5 33.6102C27.8125 33.6102 28.8906 34.0141 29.7344 34.822C30.5781 35.5989 31 36.5777 31 37.7585C31 38.9393 30.5625 39.9492 29.6875 40.7881C28.8438 41.596 27.7812 42 26.5 42Z" fill="white"/>
</svg>
