<svg width="78" height="78" viewBox="0 0 78 78" fill="none" xmlns="http://www.w3.org/2000/svg">
<path d="M38.9451 46.7979C39.7154 46.7979 40.4683 47.0266 41.1088 47.4552C41.7492 47.8837 42.2484 48.4928 42.5432 49.2054C42.8379 49.918 42.9151 50.7021 42.7648 51.4586C42.6145 52.2151 42.2436 52.91 41.6989 53.4554C41.1543 54.0008 40.4604 54.3722 39.7049 54.5227C38.9494 54.6731 38.1664 54.5959 37.4547 54.3007C36.7431 54.0056 36.1349 53.5057 35.7069 52.8644C35.279 52.2231 35.0506 51.4691 35.0506 50.6978C35.0506 49.6635 35.4609 48.6715 36.1913 47.9402C36.9216 47.2088 37.9122 46.7979 38.9451 46.7979ZM38.9451 0C44.0595 0 49.1237 1.00872 53.8488 2.96857C58.5738 4.92841 62.8671 7.80101 66.4835 11.4223C73.7871 18.7359 77.8902 28.6553 77.8902 38.9983C77.9243 48.0035 74.8105 56.7368 69.0886 63.6842L76.8777 71.4838C77.418 72.0322 77.7841 72.7286 77.9297 73.4852C78.0752 74.2417 77.9937 75.0245 77.6955 75.7346C77.372 76.4363 76.8477 77.026 76.1889 77.4287C75.5302 77.8314 74.7668 78.0291 73.9957 77.9966H38.9451C28.6162 77.9966 18.7104 73.8878 11.4068 66.5742C4.10313 59.2606 0 49.3413 0 38.9983C0 28.6553 4.10313 18.7359 11.4068 11.4223C18.7104 4.10874 28.6162 0 38.9451 0ZM38.9451 70.1969H64.6099L60.988 66.5701C60.6201 66.2089 60.3273 65.7782 60.1268 65.3029C59.9262 64.8276 59.8218 64.3172 59.8197 63.8012C59.8343 62.7725 60.2543 61.7913 60.988 61.0713C66.0876 55.9705 69.2632 49.2569 69.9739 42.0744C70.6846 34.8919 68.8863 27.6849 64.8856 21.6812C60.8848 15.6775 54.929 11.2485 48.0329 9.14889C41.1368 7.04928 33.727 7.40891 27.066 10.1665C20.405 12.9241 14.9049 17.9091 11.5027 24.2721C8.10049 30.6351 7.00673 37.9825 8.40775 45.0625C9.80878 52.1425 13.6179 58.5171 19.1862 63.1001C24.7544 67.6832 31.7373 70.1912 38.9451 70.1969ZM38.9451 23.399C39.978 23.399 40.9686 23.8098 41.6989 24.5412C42.4293 25.2726 42.8396 26.2645 42.8396 27.2988V38.9983C42.8396 40.0326 42.4293 41.0245 41.6989 41.7559C40.9686 42.4872 39.978 42.8981 38.9451 42.8981C37.9122 42.8981 36.9216 42.4872 36.1913 41.7559C35.4609 41.0245 35.0506 40.0326 35.0506 38.9983V27.2988C35.0506 26.2645 35.4609 25.2726 36.1913 24.5412C36.9216 23.8098 37.9122 23.399 38.9451 23.399Z" fill="#32137B"/>
</svg>
