<svg width="39" height="39" viewBox="0 0 39 39" fill="none" xmlns="http://www.w3.org/2000/svg">
<g clip-path="url(#clip0_405_432)">
<path d="M33.345 5.47739C29.64 1.9772 24.765 0 19.5731 0C4.67188 0 -4.68488 15.7779 2.756 28.3287L0 38.1147L10.2944 35.4911C14.7794 37.859 18.4535 37.6493 19.5829 37.7891C36.8615 37.7891 45.4626 17.3596 33.3206 5.53933L33.345 5.47739Z" fill="#ECEFF1"/>
<path d="M19.6059 34.5443L19.5961 34.5427H19.5701C14.3994 34.5427 11.0958 32.1495 10.7708 32.0113L4.677 33.5597L6.31013 27.771L5.92175 27.1755C4.313 24.6726 3.45825 21.7902 3.45825 18.822C3.45825 4.85776 20.9189 -2.12516 31.0231 7.74495C41.103 17.5118 34.0261 34.5443 19.6059 34.5443Z" fill="#4AC959"/>
<path d="M28.4415 22.7199L28.4269 22.839C27.9378 22.6008 25.5555 21.4621 25.1119 21.3049C24.1158 20.9444 24.3969 21.2477 22.4843 23.3885C22.1999 23.6981 21.9172 23.722 21.4345 23.5076C20.947 23.2694 19.3822 22.7691 17.5297 21.1492C16.0867 19.8867 15.1182 18.3383 14.8322 17.8618C14.356 17.0583 15.3522 16.9439 16.2589 15.2669C16.4214 14.9334 16.3385 14.6713 16.2183 14.4347C16.0964 14.1965 15.1263 11.862 14.72 10.9313C14.33 10.0039 13.9287 10.1214 13.628 10.1214C12.692 10.042 12.0079 10.0547 11.405 10.6677C8.78228 13.485 9.44366 16.3912 11.6878 19.4817C16.098 25.1227 18.4478 26.1613 22.7443 27.6033C23.9045 27.9638 24.9624 27.913 25.7993 27.7955C26.732 27.651 28.6707 26.6504 29.0753 25.5308C29.4897 24.4112 29.4897 23.4822 29.3678 23.2678C29.2475 23.0534 28.929 22.9343 28.4415 22.7199Z" fill="#FAFAFA"/>
</g>
<defs>
<clipPath id="clip0_405_432">
<rect width="39" height="38.1147" fill="white"/>
</clipPath>
</defs>
</svg>
